<mxfile host="drawio-plugin" modified="2023-05-10T16:45:21.567Z" agent="5.0 (Windows NT 6.2; Win64; x64) AppleWebKit/537.36 (KHTML, like Gecko) Chrome/104.0.5112.102 Safari/537.36" version="20.5.3" etag="R5MzRej851BVg2gF3P73" type="embed"><diagram id="A_4rk173HOh1SUTghJXg" name="Page-1"><mxGraphModel dx="765" dy="535" grid="1" gridSize="10" guides="1" tooltips="1" connect="1" arrows="1" fold="1" page="1" pageScale="1" pageWidth="827" pageHeight="1169" math="0" shadow="0"><root><mxCell id="0"/><mxCell id="1" parent="0"/><mxCell id="5" style="edgeStyle=orthogonalEdgeStyle;rounded=0;orthogonalLoop=1;jettySize=auto;html=1;entryX=0;entryY=0.5;entryDx=0;entryDy=0;entryPerimeter=0;" edge="1" parent="1" source="2"><mxGeometry relative="1" as="geometry"><mxPoint x="390" y="150" as="targetPoint"/></mxGeometry></mxCell><mxCell id="2" value="Ingestion" style="shape=process;whiteSpace=wrap;html=1;backgroundOutline=1;" vertex="1" parent="1"><mxGeometry x="190" y="120" width="120" height="60" as="geometry"/></mxCell><mxCell id="32" style="edgeStyle=orthogonalEdgeStyle;curved=1;orthogonalLoop=1;jettySize=auto;html=1;exitX=1;exitY=0.5;exitDx=0;exitDy=0;entryX=0;entryY=0.5;entryDx=0;entryDy=0;" edge="1" parent="1" source="6" target="9"><mxGeometry relative="1" as="geometry"/></mxCell><mxCell id="6" value="OCR" style="shape=process;whiteSpace=wrap;html=1;backgroundOutline=1;" vertex="1" parent="1"><mxGeometry x="192" y="290" width="120" height="60" as="geometry"/></mxCell><mxCell id="36" style="edgeStyle=orthogonalEdgeStyle;curved=1;orthogonalLoop=1;jettySize=auto;html=1;exitX=1;exitY=0.5;exitDx=0;exitDy=0;entryX=0;entryY=0.5;entryDx=0;entryDy=0;" edge="1" parent="1" source="7" target="22"><mxGeometry relative="1" as="geometry"/></mxCell><mxCell id="7" value="Reference Extraction" style="shape=process;whiteSpace=wrap;html=1;backgroundOutline=1;" vertex="1" parent="1"><mxGeometry x="196" y="480" width="120" height="60" as="geometry"/></mxCell><mxCell id="33" style="edgeStyle=orthogonalEdgeStyle;curved=1;orthogonalLoop=1;jettySize=auto;html=1;exitX=1;exitY=0.5;exitDx=0;exitDy=0;entryX=0;entryY=0.5;entryDx=0;entryDy=0;dashed=1;" edge="1" parent="1" source="9" target="10"><mxGeometry relative="1" as="geometry"/></mxCell><mxCell id="35" style="edgeStyle=orthogonalEdgeStyle;curved=1;orthogonalLoop=1;jettySize=auto;html=1;exitX=0.5;exitY=1;exitDx=0;exitDy=0;entryX=1;entryY=0.5;entryDx=0;entryDy=0;dashed=1;" edge="1" parent="1" source="9" target="21"><mxGeometry relative="1" as="geometry"/></mxCell><mxCell id="9" value="Error Correction" style="shape=process;whiteSpace=wrap;html=1;backgroundOutline=1;" vertex="1" parent="1"><mxGeometry x="350" y="290" width="120" height="60" as="geometry"/></mxCell><mxCell id="34" style="edgeStyle=orthogonalEdgeStyle;curved=1;orthogonalLoop=1;jettySize=auto;html=1;exitX=0.5;exitY=1;exitDx=0;exitDy=0;entryX=1;entryY=0.5;entryDx=0;entryDy=0;dashed=1;" edge="1" parent="1" source="10" target="15"><mxGeometry relative="1" as="geometry"/></mxCell><mxCell id="10" value="Document Segmentation" style="shape=process;whiteSpace=wrap;html=1;backgroundOutline=1;" vertex="1" parent="1"><mxGeometry x="500" y="290" width="120" height="60" as="geometry"/></mxCell><mxCell id="14" value="" style="group" vertex="1" connectable="0" parent="1"><mxGeometry x="400" y="120" width="70" height="80" as="geometry"/></mxCell><mxCell id="8" value="" style="dashed=0;outlineConnect=0;html=1;align=center;labelPosition=center;verticalLabelPosition=bottom;verticalAlign=top;shape=mxgraph.webicons.adobe_pdf;fillColor=#F40C0C;gradientColor=#610603" vertex="1" parent="14"><mxGeometry width="40" height="50" as="geometry"/></mxCell><mxCell id="11" value="" style="dashed=0;outlineConnect=0;html=1;align=center;labelPosition=center;verticalLabelPosition=bottom;verticalAlign=top;shape=mxgraph.webicons.adobe_pdf;fillColor=#F40C0C;gradientColor=#610603" vertex="1" parent="14"><mxGeometry x="10" y="10" width="40" height="50" as="geometry"/></mxCell><mxCell id="12" value="" style="dashed=0;outlineConnect=0;html=1;align=center;labelPosition=center;verticalLabelPosition=bottom;verticalAlign=top;shape=mxgraph.webicons.adobe_pdf;fillColor=#F40C0C;gradientColor=#610603" vertex="1" parent="14"><mxGeometry x="20" y="20" width="40" height="50" as="geometry"/></mxCell><mxCell id="13" value="" style="dashed=0;outlineConnect=0;html=1;align=center;labelPosition=center;verticalLabelPosition=bottom;verticalAlign=top;shape=mxgraph.webicons.adobe_pdf;fillColor=#F40C0C;gradientColor=#610603" vertex="1" parent="14"><mxGeometry x="30" y="30" width="40" height="50" as="geometry"/></mxCell><mxCell id="15" value="" style="shape=image;imageAspect=0;aspect=fixed;verticalLabelPosition=bottom;verticalAlign=top;image=https://upload.wikimedia.org/wikipedia/commons/5/5b/Text_Encoding_InitiativeTEI_Logo.svg;" vertex="1" parent="1"><mxGeometry x="420" y="368.59999999999997" width="66" height="72.79" as="geometry"/></mxCell><mxCell id="87" style="edgeStyle=orthogonalEdgeStyle;curved=1;orthogonalLoop=1;jettySize=auto;html=1;" edge="1" parent="1" source="21" target="7"><mxGeometry relative="1" as="geometry"/></mxCell><mxCell id="21" value="" style="shape=image;imageAspect=0;aspect=fixed;verticalLabelPosition=bottom;verticalAlign=top;image=https://www.svgrepo.com/download/149905/txt-file-symbol.svg;" vertex="1" parent="1"><mxGeometry x="290" y="370" width="70" height="70" as="geometry"/></mxCell><mxCell id="37" style="edgeStyle=orthogonalEdgeStyle;curved=1;orthogonalLoop=1;jettySize=auto;html=1;exitX=1;exitY=0.5;exitDx=0;exitDy=0;entryX=0;entryY=0.5;entryDx=0;entryDy=0;" edge="1" parent="1" source="22" target="23"><mxGeometry relative="1" as="geometry"/></mxCell><mxCell id="62" style="edgeStyle=orthogonalEdgeStyle;curved=1;orthogonalLoop=1;jettySize=auto;html=1;entryX=0;entryY=0.5;entryDx=0;entryDy=0;" edge="1" parent="1" source="22" target="60"><mxGeometry relative="1" as="geometry"/></mxCell><mxCell id="22" value="Reference Segmentation" style="shape=process;whiteSpace=wrap;html=1;backgroundOutline=1;" vertex="1" parent="1"><mxGeometry x="350" y="480" width="120" height="60" as="geometry"/></mxCell><mxCell id="23" value="Reference Data Encoding" style="shape=process;whiteSpace=wrap;html=1;backgroundOutline=1;" vertex="1" parent="1"><mxGeometry x="510" y="480" width="120" height="60" as="geometry"/></mxCell><mxCell id="59" style="edgeStyle=orthogonalEdgeStyle;curved=1;orthogonalLoop=1;jettySize=auto;html=1;entryX=0.5;entryY=0;entryDx=0;entryDy=0;" edge="1" parent="1" source="25" target="6"><mxGeometry relative="1" as="geometry"/></mxCell><mxCell id="25" value="" style="dashed=0;outlineConnect=0;html=1;align=center;labelPosition=center;verticalLabelPosition=bottom;verticalAlign=top;shape=mxgraph.webicons.adobe_pdf;fillColor=#F40C0C;gradientColor=#610603" vertex="1" parent="1"><mxGeometry x="232" y="200" width="40" height="50" as="geometry"/></mxCell><mxCell id="26" style="edgeStyle=orthogonalEdgeStyle;curved=1;orthogonalLoop=1;jettySize=auto;html=1;" edge="1" parent="1" source="13" target="25"><mxGeometry relative="1" as="geometry"><Array as="points"><mxPoint x="450" y="225"/></Array></mxGeometry></mxCell><mxCell id="48" style="edgeStyle=orthogonalEdgeStyle;curved=1;orthogonalLoop=1;jettySize=auto;html=1;exitX=1;exitY=0.5;exitDx=0;exitDy=0;entryX=0;entryY=0.5;entryDx=0;entryDy=0;" edge="1" parent="1" source="27" target="45"><mxGeometry relative="1" as="geometry"/></mxCell><mxCell id="27" value="Reference Data Reconciliation/ Linking" style="shape=process;whiteSpace=wrap;html=1;backgroundOutline=1;" vertex="1" parent="1"><mxGeometry x="210" y="710" width="120" height="60" as="geometry"/></mxCell><mxCell id="44" style="edgeStyle=orthogonalEdgeStyle;curved=1;orthogonalLoop=1;jettySize=auto;html=1;entryX=0;entryY=0.5;entryDx=0;entryDy=0;" edge="1" parent="1" source="43" target="27"><mxGeometry relative="1" as="geometry"/></mxCell><mxCell id="43" value="External Data Sources" style="ellipse;shape=cloud;whiteSpace=wrap;html=1;" vertex="1" parent="1"><mxGeometry x="30" y="700" width="120" height="80" as="geometry"/></mxCell><mxCell id="50" style="edgeStyle=orthogonalEdgeStyle;curved=1;orthogonalLoop=1;jettySize=auto;html=1;exitX=1;exitY=0.5;exitDx=0;exitDy=0;" edge="1" parent="1" source="45" target="47"><mxGeometry relative="1" as="geometry"><Array as="points"><mxPoint x="560" y="740"/><mxPoint x="560" y="660"/></Array></mxGeometry></mxCell><mxCell id="54" style="edgeStyle=orthogonalEdgeStyle;curved=1;orthogonalLoop=1;jettySize=auto;html=1;entryX=0.39;entryY=-0.007;entryDx=0;entryDy=0;entryPerimeter=0;" edge="1" parent="1" source="45" target="46"><mxGeometry relative="1" as="geometry"/></mxCell><mxCell id="56" style="edgeStyle=orthogonalEdgeStyle;curved=1;orthogonalLoop=1;jettySize=auto;html=1;dashed=1;dashPattern=1 2;" edge="1" parent="1" source="45" target="55"><mxGeometry relative="1" as="geometry"/></mxCell><mxCell id="58" style="edgeStyle=orthogonalEdgeStyle;curved=1;orthogonalLoop=1;jettySize=auto;html=1;entryX=-0.055;entryY=0.584;entryDx=0;entryDy=0;entryPerimeter=0;" edge="1" parent="1" source="45" target="57"><mxGeometry relative="1" as="geometry"><Array as="points"><mxPoint x="570" y="740"/><mxPoint x="570" y="838"/><mxPoint x="615" y="838"/></Array></mxGeometry></mxCell><mxCell id="45" value="Storage / Export" style="shape=process;whiteSpace=wrap;html=1;backgroundOutline=1;" vertex="1" parent="1"><mxGeometry x="360" y="710" width="120" height="60" as="geometry"/></mxCell><mxCell id="46" value="Local Storage" style="shape=cylinder3;whiteSpace=wrap;html=1;boundedLbl=1;backgroundOutline=1;size=15;" vertex="1" parent="1"><mxGeometry x="400" y="810" width="60" height="90" as="geometry"/></mxCell><mxCell id="53" style="edgeStyle=orthogonalEdgeStyle;curved=1;orthogonalLoop=1;jettySize=auto;html=1;entryX=0;entryY=0.5;entryDx=0;entryDy=0;" edge="1" parent="1" source="47" target="52"><mxGeometry relative="1" as="geometry"/></mxCell><mxCell id="47" value="Zotero" style="shape=image;imageAspect=0;aspect=fixed;verticalLabelPosition=bottom;verticalAlign=top;image=data:image/svg+xml,PHN2ZyB4bWxucz0iaHR0cDovL3d3dy53My5vcmcvMjAwMC9zdmciIHZpZXdCb3g9IjAgMCA2NCA2NCIgdmVyc2lvbj0iMS4xIiBoZWlnaHQ9IjY0IiB3aWR0aD0iNjQiPiYjeGE7IDxwYXRoIGQ9Ik0gMzIuMTU1NTk3LDQuMDAxNzI4OSBBIDYuNTk0Njk4NCw2LjM2NzEwMTkgMCAwIDAgMjguNzAxNjUsNC44NTExMTU4IEwgOS4yOTczNDk3LDE1LjY2Nzc0OSBhIDYuNTk0Njk4NCw2LjM2NzEwMTkgMCAwIDAgLTMuMjk3MzQ5Miw1LjUxMzkxNSBsIDAsMjEuNjMzNjY3IGEgNi41OTQ2OTg0LDYuMzY3MTAxOSAwIDAgMCAzLjI5NzM0OTIsNS41MTM5MTUgTCAyOC43MDIyNSw1OS4xNDYwOCBhIDYuNTk0Njk4NCw2LjM2NzEwMTkgMCAwIDAgNi41OTQ2OTksMCBMIDU0LjcwMTg1LDQ4LjMyOTI0NiBhIDYuNTk0Njk4NCw2LjM2NzEwMTkgMCAwIDAgMy4yOTc5NDksLTUuNTE1OTE1IGwgMCwtMjEuNjMzNjY3IEEgNi41OTQ2OTg0LDYuMzY3MTAxOSAwIDAgMCA1NC43MDE4NSwxNS42NjU3NDkgTCAzNS4yOTgxNDksNC44NDkxMTU4IEEgNi41OTQ2OTg0LDYuMzY3MTAxOSAwIDAgMCAzMi4xNTYxOTcsMy45OTk3Mjg5IFoiIHN0eWxlPSJmaWxsOiNlNGU0ZTQiLz4mI3hhOyA8cGF0aCBkPSJNIDMyLjE1NjI1LDQuMDAxOTUzMSBBIDYuNTk0Nzc0NSw2LjM3MTkzMzMgMCAwIDAgMjguNzAzMTI1LDQuODUzNTE1NiBMIDkuMjk2ODc1LDE1LjY3NzczNCBBIDYuNTk0Nzc0NSw2LjM3MTkzMzMgMCAwIDAgNiwyMS4xOTcyNjYgbCAwLDEuMDAxOTUzIEEgNi41OTQ3NzQ1LDYuMzcxOTMzMyAwIDAgMSA5LjI5Njg3NSwxNi42Nzc3MzQgTCAyOC43MDMxMjUsNS44NTM1MTU2IEEgNi41OTQ3NzQ1LDYuMzcxOTMzMyAwIDAgMSAzMi4xNTYyNSw1LjAwMTk1MzEgNi41OTQ3NzQ1LDYuMzcxOTMzMyAwIDAgMSAzNS4yOTY4NzUsNS44NTM1MTU2IEwgNTQuNzAzMTI1LDE2LjY3NzczNCBBIDYuNTk0Nzc0NSw2LjM3MTkzMzMgMCAwIDEgNTgsMjIuMTk5MjE5IGwgMCwtMS4wMDE5NTMgQSA2LjU5NDc3NDUsNi4zNzE5MzMzIDAgMCAwIDU0LjcwMzEyNSwxNS42Nzc3MzQgTCAzNS4yOTY4NzUsNC44NTM1MTU2IEEgNi41OTQ3NzQ1LDYuMzcxOTMzMyAwIDAgMCAzMi4xNTYyNSw0LjAwMTk1MzEgWiIgc3R5bGU9Im9wYWNpdHk6MC4yO2ZpbGw6I2ZmZmZmZiIvPiYjeGE7IDxwYXRoIGQ9Im0gNiw0MS44MDA4NTkgYSA2LjU5NDY5ODQsNi4zNzIxMjM1IDAgMCAwIDAuMDAxOTUsMC4wNzQyMiBsIDAsLTAuMDc0MjIgLTAuMDAxOTUsMCB6IG0gMC4wMDE5NSwxIDAsMSBhIDYuNTk0Njk4NCw2LjM3MjEyMzUgMCAwIDAgMy4yOTY4NzUsNS41MTc1NzggbCAxOS40MDYyNTMsMTAuODI4MTI1IGEgNi41OTQ2OTg0LDYuMzcyMTIzNSAwIDAgMCA2LjU5Mzc1LDAgTCA1NC43MDMxMjUsNDkuMzE4NDM3IEEgNi41OTQ2OTg0LDYuMzcyMTIzNSAwIDAgMCA1OCw0My44MDA4NTkgbCAwLC0xIGEgNi41OTQ2OTg0LDYuMzcyMTIzNSAwIDAgMSAtMy4yOTY4NzUsNS41MTc1NzggTCAzNS4yOTg4MjgsNTkuMTQ2NTYyIGEgNi41OTQ2OTg0LDYuMzcyMTIzNSAwIDAgMSAtNi41OTM3NSwwIEwgOS4yOTg4MjgxLDQ4LjMxODQzNyBhIDYuNTk0Njk4NCw2LjM3MjEyMzUgMCAwIDEgLTMuMjk2ODc1LC01LjUxNzU3OCB6IiBzdHlsZT0ib3BhY2l0eTowLjIiLz4mI3hhOyA8cGF0aCBkPSJtIDIwLjAxNDE3NiwxOCBoIDIzLjk3MiBsIC0yMy45NzIsMjggaCAyMy45NDQiIHN0eWxlPSJmaWxsOm5vbmU7c3Ryb2tlOiNhODE3MTc7c3Ryb2tlLXdpZHRoOjY7c3Ryb2tlLWxpbmVjYXA6c3F1YXJlO3N0cm9rZS1saW5lam9pbjpyb3VuZCIvPiYjeGE7PC9zdmc+;" vertex="1" parent="1"><mxGeometry x="620" y="628.45" width="64" height="64" as="geometry"/></mxCell><mxCell id="52" value="" style="shape=image;imageAspect=0;aspect=fixed;verticalLabelPosition=bottom;verticalAlign=top;image=data:image/svg+xml,PHN2ZyB4bWxucz0iaHR0cDovL3d3dy53My5vcmcvMjAwMC9zdmciIGhlaWdodD0iNzQ0LjA5MDAzIiB3aWR0aD0iMTA1Mi4zNiIgdmVyc2lvbj0iMS4yIiB2aWV3Qm94PSIwIDAgMTA1Mi4zNiA3NDQuMDkwMDMiPiYjeGE7ICA8cGF0aCBzdHlsZT0iZmlsbDojOTkwMDAwIiBkPSJtIDExOS40MjA3LDU0My4wMTY3OSBoIDI5LjE2Mjc3IFYgNDMuMDUyNDk3IEggMTE5LjQyMDcgViA1NDMuMDE2NzkgeiBtIDYwLjI3MjU2LDAgaCA4OS40MjkyNiBWIDQzLjA1MjQ5NyBIIDE3OS42OTMyNiBWIDU0My4wMTY3OSB6IE0gMjk4LjI5MTM2LDQzLjA1MjQ5NyBWIDU0Mi45OTg5NSBoIDg5LjQyOTI2IFYgNDMuMDUyNDk3IGggLTg5LjQyOTI2IHoiLz4mI3hhOyAgPHBhdGggc3R5bGU9ImZpbGw6IzMzOTk2NiIgZD0ibSA4MzguOTc5MzMsNTQzLjA1MjQgaCAyOS4xNjg4MyBWIDQzLjA1MjQzNyBIIDgzOC45NzkzMyBWIDU0My4wNTI0IHogTSA4OTkuMjU3OTUsNDMuMDUyNDM3IFYgNTQzLjA1MjQgaCAyOS4xNjI3NyBWIDQzLjA1MjQzNyBIIDg5OS4yNTc5NSB6IE0gNDE3Ljg1Mzg3LDU0My4wNTI0NyBoIDI5LjE2Mjc3IFYgNDMuMDUyNDk3IEggNDE3Ljg1Mzg3IFYgNTQzLjA1MjQ3IHogTSA0NzguMTMyNDksNDMuMDUyNDk3IFYgNTQzLjAzNDYzIGggMjkuMTY4ODQgViA0My4wNTI0OTcgaCAtMjkuMTY4ODQgeiIvPiYjeGE7ICA8cGF0aCBzdHlsZT0iZmlsbDojMDA2Njk5IiBkPSJtIDUzNy40MjI0NCw1NDMuMDUyNDcgaCA4OS40NDE0IFYgNDMuMDUyNDk3IGggLTg5LjQ0MTQgViA1NDMuMDUyNDcgeiBtIDExOC41OTgxLDAgaCAzMS4xMDM3MiBWIDQzLjA1MjQ5NyBIIDY1Ni4wMjA1NCBWIDU0My4wNTI0NyB6IE0gNzE2LjI5MzEsNDMuMDUyNDk3IFYgNTQzLjAzNDYzIGggODkuNDI5MjYgViA0My4wNTI0OTcgSCA3MTYuMjkzMSB6Ii8+JiN4YTsgIDxwYXRoIHN0eWxlPSJmaWxsOiM0ODQ4NDg7ZmlsbC1vcGFjaXR5OjE7c3Ryb2tlOm5vbmU7Zm9udC1mYW1pbHk6R2lsbCBTYW5zIE1UIiBkPSJtIDg4My45ODg1OSw1OTguMDg4MTEgNDYuMDE1NjIsMTAzLjY4MzU5IC0yNy43NTc4MSwwIC04LjUzNTE2LC0yMC40ODQzOCAtNDYuMzg2NzIsMCAtNy43MTg3NSwyMC40ODQzOCAtMjcuMzg2NzIsMCA0MS43ODUxNiwtMTAzLjY4MzU5IDI5Ljk4NDM4LDAgbSAyLjA3ODEyLDY1LjA4OTg0IC0xNi42OTkyMiwtNDAuMzAwNzggLTE1LjIxNDg0LDQwLjMwMDc4IDMxLjkxNDA2LDAgbSAtNjAuMjY1NjIsLTY1LjA4OTg0IDAsMTkgLTM3LjU1NDY5LDAgMCw4NC42ODM1OSAtMjUuODI4MTMsMCAwLC04NC42ODM1OSAtMzcuNTU0NjgsMCAwLC0xOSAxMDAuOTM3NSwwIG0gLTEzMy41OTM3NSwwIDQ2LjAxNTYyLDEwMy42ODM1OSAtMjcuNzU3ODEsMCAtOC41MzUxNiwtMjAuNDg0MzggLTQ2LjM4NjcyLDAgLTcuNzE4NzUsMjAuNDg0MzggLTI3LjM4NjcyLDAgNDEuNzg1MTYsLTEwMy42ODM1OSAyOS45ODQzOCwwIG0gMi4wNzgxMiw2NS4wODk4NCAtMTYuNjk5MjIsLTQwLjMwMDc4IC0xNS4yMTQ4NCw0MC4zMDA3OCAzMS45MTQwNiwwIG0gLTE3Ni41NjY0MSwtNjUuMDg5ODQgNDUuNzE4NzUsMCBjIDE3LjY2Mzk5LDEwZS01IDMxLjYxNzEsNC44NDkwNSA0MS44NTkzOCwxNC41NDY4NyAxMC4yOTE1Niw5LjY0ODUyIDE1LjQzNzM5LDIyLjE0MiAxNS40Mzc1LDM3LjQ4MDQ3IC0xLjFlLTQsMTYuMDgwNzYgLTUuMjIwMTYsMjguNzIyNjggLTE1LjY2MDE2LDM3LjkyNTc4IC0xMC4zOTA3MSw5LjE1MzY1IC0yNS4yMzQ0NCwxMy43MzA0NyAtNDQuNTMxMjUsMTMuNzMwNDcgbCAtNDIuODI0MjIsMCAwLC0xMDMuNjgzNTkgbSAyNS44MjgxMywxOSAwLDY1LjY4MzU5IDE2Ljg0NzY2LDAgYyAxMC45MzQ4MywyZS01IDE5LjI5NjgsLTIuOTkzNDcgMjUuMDg1OTMsLTguOTgwNDcgNS43ODg5OCwtNi4wMzY0MiA4LjY4MzUxLC0xMy45Nzc4MiA4LjY4MzYsLTIzLjgyNDIyIC05ZS01LC0xMC4xOTI2NCAtMi45NDQxLC0xOC4yMDgyNiAtOC44MzIwMywtMjQuMDQ2ODcgLTUuODM4NjIsLTUuODg3OTQgLTE0LjI1MDA3LC04LjgzMTk1IC0yNS4yMzQzOCwtOC44MzIwMyBsIC0xNi41NTA3OCwwIG0gLTQ5LjcyNjU2LC0xOSAwLDEwMy42ODM1OSAtMjUuODI4MTMsMCAwLC0xMDMuNjgzNTkgMjUuODI4MTMsMCBtIC00OC45MTAxNiwwIC0zMy43Njk1Myw0OC42ODc1IDQ1Ljc5Mjk3LDU0Ljk5NjA5IC0zMi4zNTkzOCwwIC00MS4wNDI5NywtNDguNjEzMjggMCw0OC42MTMyOCAtMjUuODI4MTIsMCAwLC0xMDMuNjgzNTkgMjUuODI4MTIsMCAwLDQ2LjY4MzU5IDMyLjk1MzEzLC00Ni42ODM1OSAyOC40MjU3OCwwIG0gLTExMS4xMDU0NywwIDAsMTAzLjY4MzU5IC0yNS44MjgxMiwwIDAsLTEwMy42ODM1OSAyNS44MjgxMiwwIG0gLTEyNy4yMTA5NCwzNy40MDYyNSAtMzIuMDYyNSw2Ny42MTMyOCAtMTEuMTMyODEsMCAtNDUuNTcwMzEsLTEwNS4wMTk1MyAyNy4zODY3MiwwIDI0LjQxNzk3LDU3LjI5Njg3IDI2LjY0NDUzLC01Ny4yOTY4NyAyMC43ODEyNSwwIDI2LjY0NDUzLDU3LjI5Njg3IDI0LjI2OTUzLC01Ny4yOTY4NyAyNy4zODY3MiwwIC00NS40MjE4OCwxMDUuMDE5NTMgLTExLjEzMjgxLDAgLTMyLjIxMDk0LC02Ny42MTMyOCIvPiYjeGE7PC9zdmc+;" vertex="1" parent="1"><mxGeometry x="740" y="625.0699999999999" width="100" height="70.77" as="geometry"/></mxCell><mxCell id="55" value="OpenCitations" style="shape=image;imageAspect=0;aspect=fixed;verticalLabelPosition=bottom;verticalAlign=top;image=data:image/png,iVBORw0KGgoAAAANSUhEUgAAAOEAAADhCAMAAAAJbSJIAAAA7VBMVEX///88QeWrVP00QOSpTv2qUv06P+WoTP2nSf2mRv2lQ/2wVf6oTf0xN+QkK+OnSP0tM+QhKOM3POWUT/f8+f8zOeRZReptSO7l5vvlz/6/g/2wYP3u4P769f+FTfTGkf3X2Pnr2v7dwP7Qp/7iyv5eYeiuWv24cv1BRub38P/auv6jpfF6fezBiP2vsPPe3/q3ufTXs/5MUeezZ/1na+m9ff2dn/DLnP7NoP7z6P/BwvXUrf5zduu6d/2Pke63uPRZXehwQfCDhe2qrPLMzPdcPOyTle9qburUy/pdZeh8S/FRVed0d+vIlf1ITOacIxN6AAALEElEQVR4nO2d+1fiuhbHUfoeGtraKggoL0HBF74f4+hwvONVr/7/f86lFKRA2ma32TjrrHx+OmvWmUy/ZGdnJ9nZyeUEAoFAIBAIBAKBQCAQCAQCgUAgEAgEAoFAIBAIBAKBQDCjVi03B/c319fXN61Br9044P4PlHxqvJtlwW0Mds91Q9c1TVULhYKqalpRN4zOdqudXad7cnp1+LpPbBJgk/29w6vHusvhy1motT8qhq5J8voysqQWjfWj3m3q1kuPwzObWKbnKGszFMczLWJ/Hh6fcFRC5WDQNfQCTVxYpmZUbqrwxt274RqxvLC0eRTPIs7hKZ7Zur2uocWr+1KpGp0WrCfvflpx6sIqL05RDLa6qzPK+xLZbbM2fvLLspxkeRMcixzWeesrdw0JIG8iUl8fsDR+90QYem++J8nZKU997YoB6b6QRk27T2r8dJ84IHkTkZb3Dy99jfOU+sZoai+u8bt9C9Z9YY3mMQ99B9tZ9PnolXJU4/V3klZfoHH/LrPAex0+/haRjW2qh68d2mnsc04juShl0letFDPr85G05nLjj5aXUZ+PQ/oZBLayGugM43JhDqtdZDLQGYr1nrYba12dl74RktoIN37HpQMDHDudx2lo2UdgGNlozRr/ZfPpwACF/EwhcMDPQqfol5O23SeLoz4f8xNsqbsGb30j1Mp4bXWi8LPQKY71DBP4oCEIHA1GaRSOP3NyMfMo9iNAn3uuogj0Q9XqHdchGMJmnzbcCl8fE+ZH4T95HIFra+TP3yDwLb+xhSfxF5tCXIFr+Y3Nb+7FbgFP4I6vDVUiw1jcxnIyI4EbgbL8BpbAkbtJ9KjXPCO1BTa+ug5TYj1eYBNjop8y+4zNDTQ7VazY6OYWUeCPzdln5Ld20CQ6n3EK17nHojOBc5NEfgdvzjAPowVuI7rRBbvE9DYk0tusaBBOQByKJGIoHuBE22N+LE2B+a03vKH4RFd4iRjLUBwLpp1a1Im/vVIb9UG0U5tmp/Kq/OiU/BuWP1XsQ8r25Q1etLYe0Vl5pE609us0N7OiuX5OIYqzcewrqps5Wq2bmUjk72wU8kqfKlDDtejv2eQdvJle1KHb9nd0IfdOdOxh1OnwN3Uh305UrDOahwnYxQtIoxxpAMdO9OLW9zXEZW+UI53Ay50q5CUuk+ceMSJNmPPi5kRFcRxHYdpdNZ34o9JOynBGVnVDk2RJ1fWoYxx6OBNS+EbvY8W0iHf2+vL67hBiJhykOnbCNmI5lZ+RNb3bKt/6zss9aPS2C/TT4sSfn9KJfqrF1fPU6mr1/hMxYxKJyFNSqlSa2V7WK70Fwy9fLmekxE0VARRfY1q/Fj+5dGVGZTR4VvLpYYpRWKRmH9wuZTUk+Blf4daCHTvkF+3U3+1Tz1TpQfYCbbAnlfWoTKBGZyGAZ/CU82ZqPUXtldVeyNLftfZZDtXARqqexzjmuYPHZCNdMFMlImwOOF44tooKsheBLpv07djmeiGJyUY6NtOZQBLv9OvhwaiQPbaD3wbQSPWPhAbDrjlZ4IivjlZIPaHt0iwBzjRZM9tasD7UdhNbnO2HMC1xvyZ9JWlH3pc46UWFRAbZS3RB0730wNDk1FB/MIVk+Z3Jf9gsKVx1ey0hyF4CNN3L60y/3G5gFyzDcMRkvrDYzjePCTAPCjYMjUZyiz6TOJAxqh4PROWM8Ytf7Ngge4keZL5Xk7zMlMbYMhh3moKByDAIA0rA3NldyGyoMo9uf9OAZTb8UugNYd/NzjnA0WhMSc1j/F2DpHXFl8Kd0Xgl3C+kTIE4GvYuHHcio6MZz/l4XQjZJy1cAxoeebDYHZowm2/5xLk+NRBXaoCuiYzcKfMGxY7D6kjhNNldqdwBtXxTYFaY3zDZQug0DNhjNpCRjsJTnflYIr+BZ6S5a/Z9xCLzFZgxbpF5LzS/YSHJy4GmQwN4Ja0CULiHo84HsJ2vA5s++s2scIcx5S4N7CsLoKMZLcvYFf7mdsFnGfaQRu4Cm+4BFHK9pjUPu0IpfvNimSZzrmz+939RxI2psCs8Ajb9lyj89/ch4jgcAMZh9itokTzg+dKbv8OX/vvnw78kpnnFUecDiUspdwhjqOkAhSaSvBED9tWTxLoNFVAuQtYWeMUSmuyXROV1UMvXBYBCejIhFyBrfJ1xszRgnXm71F/jv2MJBO3TSMlHFjPKwH0aPDOF7LUVAUU3HoB7bXjzBWS/VG0ltzehCtwvVSy0kiUfkD1v9k58gO55m2idCDq3KLCuL9rwc4uoBPvMVGFnT5EFIOZwJcjZU5C+F5Vgnx2QQlllstNJ2j+bq5nmm1hse6ane9ATjgdQKoZ0ztBka/Krsbma2RkwS+ZIicQmIdK4h53jq8kL4Wbac3yGoVhTFOAZd+DXIWhJEsPpJiwKZ1m0ipkk0d0fJ/Ep0cnANKAXLbT4ZIUWNJ8mlJ2oWPXYtkv70yzF6IRuCqBTYB+pE30I5V6GPRc8J4rEpeE9W07o/4xIyqdQhue1GTcRbbWlhZ8LmtemkJ+R3no4n/TFmvM1IkXypSrRqj81uqlyE+f/wCP0TZtTz1z8u9YaYzGMNHnsclFaKDlX61EqZqXJL1Usp7/Yj+4xtWIWU+5lbpoaAtaoGpWPZuPAdd1atd2KqseXaKaU30AxyUWoRGLp8SfJkj+bg2x8L4gsaLqha0VDL6oRTSTmee/Q7dixiPn+MhwOX548ElePjyEHOgfarAGTPldfURzP85KT9R2GWhEun4peVOIX+ks50KkwlUSPc41YKiLW13C6gqiQlwSPg3r7MO7TNnndQIyaY74AxzUAhau5u5YUjn9TJ3LrQp+Yu3k+H9hVaWjwvkMae/up9g2dyP8ecGyhyG+4v4Zxl9sh0eF42gtsDCzXjBgLjAhnsqHQ76r7pLvBxghNIVYZnlE4HuFxjhCdDWXAIdbF8CISAV1qnXVOEpcMEq9mREyZIUw7lRflIJaKWrMjVxu7qwtPV1+7JSDtQpFF4pw/zW9g+NEA7yJa4MqCN8wCQ4oTu5W6mqGYx6zXFj0IA+7xJIbKfWF6mcQEsl289f6Xt8GsZMZwanOJ6FDfJrUv0QSy3fDrIkrcwq1fajHeLTpHDN+2UAXG1BNcXS9qeHWE2QWiFbv295AP+jaSQAK6/naEU7FG6hzkcqco5a7jaxVQaGHMi1p3HG6EjwG5CSTgCw1N/nX1jWleXOlz6aAsI55ThwrM5arrfF2qbISOHP+3XMQjC9ZeupyxbZ6WqnbmjhuPMz/AMgM8BGf0UjzyREc2FjM3S2e8XoAwlXpagaPVFKdnSlSZki12leqdp0UcO+Md6WYh++wvGfQM8dJr5ncgoMlDNNyPjKYqG93I5JS7tdTvWY31mXzetLqlVLhi16d3Yi/X9iMrXDHoI394PaJXfUipcaQv6ZKGm1KjYpE/PNOKq0cGfDxKxjnT5ehj+NtyjuX1eT+CeNBSQQ+UyZpxxHx74fnFBkRyimnv4Vx2K2/rRTaRI3nnPdBvXPvnPTapJNR75LOPlTA9GjTto4KuxquUC7reHaR4bLV0fGERMy51xjEtstdHf221cf8gGUWVcsgh+xlExfPrdmoP4D5fXTjBU7Jzb8kGj8mae1fPq3od+LZ5c1nRDF0v+i8Cq5qm6bqhd7ofvUb28V967g9fP83pc8CE2Nb+3rB/h2eakRxUy83e4P7+ftBrlhu3nH2bWzqp+5yUVvXUsUAgEAgEAoFAIBAIBAKBQCAQCAQCgUAgEAgEAoFAIBAIBIj8HwKAL0JPFhnsAAAAAElFTkSuQmCC;" vertex="1" parent="1"><mxGeometry x="755" y="697.5" width="85" height="85" as="geometry"/></mxCell><mxCell id="57" value="Graph Database" style="shape=image;imageAspect=0;aspect=fixed;verticalLabelPosition=bottom;verticalAlign=top;image=data:image/svg+xml,PHN2ZyB4bWxucz0iaHR0cDovL3d3dy53My5vcmcvMjAwMC9zdmciIHdpZHRoPSIyNTUuMzM5MTcyMzYzMjgxMjUiIHZpZXdCb3g9IjAgMC4yNDgwNjIxMzM3ODkwNjI1IDI1NS4zMzkxNzIzNjMyODEyNSAyODkuMjU1MTg3OTg4MjgxMjUiIHByZXNlcnZlQXNwZWN0UmF0aW89InhNaWRZTWlkIiBoZWlnaHQ9IjI4OS4yNTUxODc5ODgyODEyNSI+PHBhdGggZmlsbD0iIzAwOGNjMSIgZD0ibTI0My4yODkzMDIgMTMxLjUyNjQ1YzAgNjcuMTg3MS01NC40NTc1NSAxMjEuNjQ0NjUxLTEyMS42NDQ2NTEgMTIxLjY0NDY1MS02Ny4xODcxMDA2IDAtMTIxLjY0NDY1MS01NC40NTc1NTEtMTIxLjY0NDY1MS0xMjEuNjQ0NjUxIDAtNjcuMTg3MTAxMiA1NC40NTc1NTA0LTEyMS42NDQ2NTE1NSAxMjEuNjQ0NjUxLTEyMS42NDQ2NTE1NSA2Ny4xODcxMDEtLjA1ODU0MjY0IDEyMS42NDQ2NTEgNTQuNDU3NTUwMzUgMTIxLjY0NDY1MSAxMjEuNjQ0NjUxNTUiLz48ZyBmaWxsPSIjZmZmIj48cGF0aCBkPSJtNTMuOTI2Njk3NyA5MS42MjYxNzA1YzAgNS4zNjQwOTMxLTQuMzYwOTMwMyA5LjcyNTAyMzUtOS43MjQwMzEgOS43MjUwMjM1LTUuMzY0MDkzMSAwLTkuNzI1MDIzMy00LjM2MDkzMDQtOS43MjUwMjMzLTkuNzI1MDIzNSAwLTUuMzYzMTAwNyA0LjM2MDkzMDItOS43MjQwMzEgOS43MjUwMjMzLTkuNzI0MDMxIDUuNDIxNjQzNCAwIDkuNzI0MDMxIDQuMzYwOTMwMyA5LjcyNDAzMSA5LjcyNDAzMSIvPjxwYXRoIGQ9Im01NS41NzY4MDYyIDExOC4zMjQ1ODljMCA1LjM2MzEwMS00LjM2MDkzMDIgOS43MjUwMjMtOS43MjQwMzEgOS43MjUwMjNzLTkuNzI1MDIzMy00LjM2MTkyMi05LjcyNTAyMzMtOS43MjUwMjMgNC4zNjE5MjI1LTkuNzI0MDMxIDkuNzI1MDIzMy05LjcyNDAzMSA5LjcyNDAzMSA0LjMwMjM4OCA5LjcyNDAzMSA5LjcyNDAzMSIvPjxwYXRoIGQ9Im02MS41MjkzMDIzIDE0Ni42MTQ1NzRjMCA1LjM2MzEtNC4zNjA5MzAyIDkuNzI0MDMxLTkuNzI0MDMxIDkuNzI0MDMxcy05LjcyNTAyMzItNC4zNjA5MzEtOS43MjUwMjMyLTkuNzI0MDMxYzAtNS4zNjQwOTMgNC4zNjE5MjI0LTkuNzI1MDI0IDkuNzI1MDIzMi05LjcyNTAyNCA1LjM2MzEwMDgtLjA1ODU0MiA5LjcyNDAzMSA0LjMwMjM4OCA5LjcyNDAzMSA5LjcyNTAyNCIvPjxwYXRoIGQ9Im03NC44NDkyNDAzIDE3MS45NTY1ODljMCA1LjM2MzEwMS00LjM2MTkyMjUgOS43MjUwMjMtOS43MjUwMjMyIDkuNzI1MDIzLTUuMzYzMTAwOCAwLTkuNzI0MDMxMS00LjM2MTkyMi05LjcyNDAzMTEtOS43MjUwMjNzNC4zNjA5MzAzLTkuNzI0MDMxIDkuNzI0MDMxMS05LjcyNDAzMWM1LjM2MzEwMDctLjA1OTUzNSA5LjcyNTAyMzIgNC4zMDIzODggOS43MjUwMjMyIDkuNzI0MDMxIi8+PHBhdGggZD0ibTE3OC45ODk2NDMgMjA3LjM3Nzg2YzAgNS4zNjMxMDEtNC4zNjA5MyA5LjcyNDAzMS05LjcyNTAyMyA5LjcyNDAzMS01LjM2MzEwMSAwLTkuNzI0MDMxLTQuMzYwOTMtOS43MjQwMzEtOS43MjQwMzEgMC01LjM2MzEgNC4zNjA5My05LjcyNTAyMyA5LjcyNDAzMS05LjcyNTAyMyA1LjM2NDA5MyAwIDkuNzI1MDIzIDQuMzYxOTIzIDkuNzI1MDIzIDkuNzI1MDIzIi8+PHBhdGggZD0ibTE5Ni42NzA1MTIgMTg2LjQ1NTMxOGMwIDUuMzYzMTAxLTQuMzYwOTMxIDkuNzI0MDMxLTkuNzI1MDI0IDkuNzI0MDMxLTUuMzYzMSAwLTkuNzI0MDMxLTQuMzYwOTMtOS43MjQwMzEtOS43MjQwMzFzNC4zNjA5MzEtOS43MjUwMjMgOS43MjQwMzEtOS43MjUwMjNjNS4zNjQwOTMgMCA5LjcyNTAyNCA0LjM2MTkyMiA5LjcyNTAyNCA5LjcyNTAyMyIvPjxwYXRoIGQ9Im0xNDUuMzk2MDkzIDM4LjUyNTAyMzNjMCA1LjM2MzEwMDctNC4zNjE5MjIgOS43MjQwMzEtOS43MjUwMjMgOS43MjQwMzFzLTkuNzI0MDMxLTQuMzYwOTMwMy05LjcyNDAzMS05LjcyNDAzMWMwLTUuMzYzMTAwOCA0LjM2MDkzLTkuNzI0MDMxMSA5LjcyNDAzMS05LjcyNDAzMTFzOS43MjUwMjMgNC4zNjA5MzAzIDkuNzI1MDIzIDkuNzI0MDMxMSIvPjxwYXRoIGQ9Im0xMTkuODE3OTIyIDI5LjU2NzAwNzhjMCA1LjM2MzEwMDctNC4zNjE5MjIgOS43MjQwMzEtOS43MjUwMjMgOS43MjQwMzFzLTkuNzI0MDMxLTQuMzYwOTMwMy05LjcyNDAzMS05LjcyNDAzMWMwLTUuMzYzMTAwOCA0LjM2MDkzLTkuNzI1MDIzMyA5LjcyNDAzMS05LjcyNTAyMzNzOS43MjUwMjMgNC4zNjE5MjI1IDkuNzI1MDIzIDkuNzI1MDIzMyIvPjwvZz48cGF0aCBmaWxsPSIjNjZiMjQ1IiBkPSJtMTg4Ljc3MzIwOSAzNy42OTk0NzI5YzM1LjgwNDI3OSAwIDY0LjgyOTUyIDI5LjAyNjIzMjUgNjQuODI5NTIgNjQuODMwNTExMSAwIDM1LjgwNDI4LTI5LjAyNTI0MSA2NC44Mjk1Mi02NC44Mjk1MiA2NC44Mjk1Mi0zNS44MDUyNzEgMC02NC44MzA1MTEtMjkuMDI1MjQtNjQuODMwNTExLTY0LjgyOTUyIDAtMzUuODA0Mjc4NiAyOS4wMjUyNC02NC44MzA1MTExIDY0LjgzMDUxMS02NC44MzA1MTExIi8+PHBhdGggZmlsbD0iI2ZmZiIgZD0ibTE4OC43NzMyMDkgMTY5LjA5NTkzOGMtMzYuNzA1MjQgMC02Ni41NjY5NDUtMjkuODYxNzA1LTY2LjU2Njk0NS02Ni41NjU5NTQgMC0zNi43MDUyMzk4IDI5Ljg2MTcwNS02Ni41NjU5NTMgNjYuNTY2OTQ1LTY2LjU2NTk1MyAzNi43MDQyNDggMCA2Ni41NjU5NTQgMjkuODYwNzEzMiA2Ni41NjU5NTQgNjYuNTY1OTUzIDAgMzYuNzA0MjQ5LTI5Ljg2MTcwNiA2Ni41NjU5NTQtNjYuNTY1OTU0IDY2LjU2NTk1NHptMC0xMjkuNjU5MDM4OGMtMzQuNzkwMjAxIDAtNjMuMDk0MDc3IDI4LjMwMzg3Ni02My4wOTQwNzcgNjMuMDkzMDg0OCAwIDM0Ljc5MDIwMiAyOC4zMDM4NzYgNjMuMDkzMDg2IDYzLjA5NDA3NyA2My4wOTMwODYgMzQuNzkwMjAyIDAgNjMuMDkzMDg2LTI4LjMwMjg4NCA2My4wOTMwODYtNjMuMDkzMDg2IDAtMzQuNzg5MjA4OC0yOC4zMDI4ODQtNjMuMDkzMDg0OC02My4wOTMwODYtNjMuMDkzMDg0OHoiLz48cGF0aCBmaWxsPSIjNjZiMjQ1IiBkPSJtOTkuOTU2MDkzIDE4MS42ODE2MTJjMjkuMjk0MTQgMCA1My4wNDI2MDUgMjMuNzQ3NDczIDUzLjA0MjYwNSA1My4wNDI2MDUgMCAyOS4yOTQxNC0yMy43NDg0NjUgNTMuMDQyNjA1LTUzLjA0MjYwNSA1My4wNDI2MDUtMjkuMjk1MTMxOCAwLTUzLjA0MjYwNDYtMjMuNzQ4NDY1LTUzLjA0MjYwNDYtNTMuMDQyNjA1IDAtMjkuMjk1MTMyIDIzLjc0NzQ3MjgtNTMuMDQyNjA1IDUzLjA0MjYwNDYtNTMuMDQyNjA1Ii8+PHBhdGggZmlsbD0iI2ZmZiIgZD0ibTk5Ljk1NjA5MyAyODkuNTAzMjU2Yy0zMC4yMDYwMTU1IDAtNTQuNzc5MDM4Ny0yNC41NzQwMTYtNTQuNzc5MDM4Ny01NC43NzkwMzkgMC0zMC4yMDYwMTUgMjQuNTczMDIzMi01NC43NzkwMzkgNTQuNzc5MDM4Ny01NC43NzkwMzkgMzAuMjA2MDE2IDAgNTQuNzc5MDM5IDI0LjU3MzAyNCA1NC43NzkwMzkgNTQuNzc5MDM5IDAgMzAuMjA1MDIzLTI0LjU3MzAyMyA1NC43NzkwMzktNTQuNzc5MDM5IDU0Ljc3OTAzOXptMC0xMDYuMDg1MjA5Yy0yOC4yODk5ODQ1IDAtNTEuMzA2MTcwNSAyMy4wMTUxOTMtNTEuMzA2MTcwNSA1MS4zMDYxNyAwIDI4LjI4OTk4NSAyMy4wMTYxODYgNTEuMzA2MTcxIDUxLjMwNjE3MDUgNTEuMzA2MTcxIDI4LjI4OTk4NSAwIDUxLjMwNjE3MS0yMy4wMTYxODYgNTEuMzA2MTcxLTUxLjMwNjE3MSAwLTI4LjI5MDk3Ny0yMy4wMTYxODYtNTEuMzA2MTctNTEuMzA2MTcxLTUxLjMwNjE3eiIvPjxwYXRoIGZpbGw9IiM2NmIyNDUiIGQ9Im01Ni4yODQyNzkxIDEuOTg0NDk2MTJjMTkuNTI5NDI2MyAwIDM1LjM2MTczNjQgMTUuODMyMzEwMDggMzUuMzYxNzM2NCAzNS4zNjE3MzY0OCAwIDE5LjUyOTQyNjMtMTUuODMyMzEwMSAzNS4zNjE3MzY0LTM1LjM2MTczNjQgMzUuMzYxNzM2NC0xOS41Mjk0MjY0IDAtMzUuMzYxNzM2NS0xNS44MzIzMTAxLTM1LjM2MTczNjUtMzUuMzYxNzM2NCAwLTE5LjUyOTQyNjQgMTUuODMyMzEwMS0zNS4zNjE3MzY0OCAzNS4zNjE3MzY1LTM1LjM2MTczNjQ4Ii8+PHBhdGggZmlsbD0iI2ZmZiIgZD0ibTU2LjI4NDI3OTEgNzQuNDQ0NDAzMWMtMjAuNDU2MTg2MSAwLTM3LjA5ODE3MDYtMTYuNjQxOTg0NS0zNy4wOTgxNzA2LTM3LjA5ODE3MDUgMC0yMC40NTYxODYxIDE2LjY0MTk4NDUtMzcuMDk4MTcwNTggMzcuMDk4MTcwNi0zNy4wOTgxNzA1OCAyMC40NTYxODYgMCAzNy4wOTgxNzA1IDE2LjY0MTk4NDQ4IDM3LjA5ODE3MDUgMzcuMDk4MTcwNTggMCAyMC40NTYxODYtMTYuNjQxOTg0NSAzNy4wOTgxNzA1LTM3LjA5ODE3MDUgMzcuMDk4MTcwNXptMC03MC43MjM0NzI4N2MtMTguNTQxMTQ3MyAwLTMzLjYyNTMwMjQgMTUuMDg0MTU1MDctMzMuNjI1MzAyNCAzMy42MjUzMDIzNyAwIDE4LjU0MTE0NzIgMTUuMDg0MTU1MSAzMy42MjUzMDIzIDMzLjYyNTMwMjQgMzMuNjI1MzAyM3MzMy42MjUzMDIzLTE1LjA4NDE1NTEgMzMuNjI1MzAyMy0zMy42MjUzMDIzYzAtMTguNTQxMTQ3My0xNS4wODQxNTUtMzMuNjI1MzAyMzctMzMuNjI1MzAyMy0zMy42MjUzMDIzN3oiLz48L3N2Zz4=;" vertex="1" parent="1"><mxGeometry x="640" y="782.5" width="84" height="95.2" as="geometry"/></mxCell><mxCell id="60" value="Citation Data Encoding" style="shape=process;whiteSpace=wrap;html=1;backgroundOutline=1;" vertex="1" parent="1"><mxGeometry x="510" y="550" width="120" height="60" as="geometry"/></mxCell><mxCell id="71" value="" style="group" vertex="1" connectable="0" parent="1"><mxGeometry x="192" y="590" width="128" height="74.92999999999995" as="geometry"/></mxCell><mxCell id="70" value="Serialization" style="rounded=1;whiteSpace=wrap;html=1;labelPosition=center;verticalLabelPosition=bottom;align=center;verticalAlign=top;" vertex="1" parent="71"><mxGeometry width="128" height="74.93" as="geometry"/></mxCell><mxCell id="38" value="" style="shape=image;imageAspect=0;aspect=fixed;verticalLabelPosition=bottom;verticalAlign=top;image=data:image/svg+xml,PHN2ZyB4bWxucz0iaHR0cDovL3d3dy53My5vcmcvMjAwMC9zdmciIGNsaXAtcnVsZT0iZXZlbm9kZCIgZmlsbC1ydWxlPSJldmVub2RkIiBpbWFnZS1yZW5kZXJpbmc9Im9wdGltaXplUXVhbGl0eSIgdGV4dC1yZW5kZXJpbmc9Imdlb21ldHJpY1ByZWNpc2lvbiIgc2hhcGUtcmVuZGVyaW5nPSJnZW9tZXRyaWNQcmVjaXNpb24iIHZpZXdCb3g9IjAgMCAxMzIxLjQ1IDEzMzMuMzMiPjxwYXRoIGQ9Ik0yMjEuMzcgNjE4LjQ0aDc1Ny45NFY0MDUuMTVINzU1LjE0Yy0yMy41IDAtNTYuMzItMTIuNzQtNzEuODItMjguMjQtMTUuNS0xNS41LTI1LTQzLjQ3LTI1LTY2Ljk3VjgyLjg5SDg4LjM5Yy0xLjk5IDAtMy40OSAxLTQuNDkgMi0xLjUgMS0yIDIuNS0yIDQuNXYxMTU1LjA0YzAgMS41IDEgMy41IDIgNC41IDEgMS40OSAzIDEuOTkgNC40OSAxLjk5SDk3Mi44YzIgMCAxLjg5LS45OSAyLjg5LTEuOTkgMS41LTEgMy42MS0zIDMuNjEtNC41di0xMjEuMDlIMjIxLjM2Yy00NC45NiAwLTgyLTM2LjktODItODEuOTlWNzAwLjQ0YzAtNDUuMSAzNi45LTgyIDgyLTgyem0xMjYuNTEgMTE3LjQ3aDc1LjI0djE0Ni42MWMwIDMwLjc5LTIuNDQgNTQuMjMtNy4zMyA3MC4zMS00LjkyIDE2LjAzLTE0LjggMjkuNjctMjkuNjUgNDAuODUtMTQuODYgMTEuMTItMzMuOTEgMTYuNzItNTcuMDUgMTYuNzItMjQuNTMgMC00My41MS0zLjcxLTU2Ljk0LTExLjA2LTEzLjUtNy4zNi0yMy44OS0xOC4xLTMxLjIzLTMyLjMtNy4zNS0xNC4xNC0xMS42OS0zMS42Ny0xMi45OS01Mi41M2w3MS41LTEwLjgxYy4xMSAxMS44MSAxLjA3IDIwLjYxIDIuODEgMjYuMzMgMS43NiA1Ljc4IDQuNzUgMTAuMzcgOSAxMy45NSAyLjg3IDIuMzMgNi45NCAzLjQ2IDEyLjI1IDMuNDYgOC40IDAgMTQuNTgtMy40NiAxOC41My0xMC4zNyAzLjktNi45MiA1Ljg3LTE4LjYgNS44Ny0zNVY3MzUuOTJ6bTExMi43NyAxODAuNjdsNzEuMTctNC45N2MxLjU0IDEyLjgxIDQuNjkgMjIuNjIgOS40NCAyOS4yOCA3Ljc0IDEwLjg4IDE4Ljc0IDE2LjM0IDMzLjA5IDE2LjM0IDEwLjY4IDAgMTguOTMtMi43NiAyNC42OC04LjM2IDUuODEtNS41OCA4LjctMTIuMDcgOC43LTE5LjQxIDAtNi45Ny0yLjcxLTEzLjI2LTguMi0xOC43OS01LjQ3LTUuNTMtMTguMjMtMTAuNjgtMzguMjgtMTUuNjUtMzIuODktOC4xNy01Ni4yNy0xOS4xLTcwLjI2LTMyLjc0LTE0LjEyLTEzLjU3LTIxLjE4LTMwLjkyLTIxLjE4LTUyLjAzIDAtMTMuODMgMy42MS0yNi44OSAxMC44NS0zOS4yMSA3LjIyLTEyLjM4IDE4LjA3LTIyLjA2IDMyLjU5LTI5LjA5IDE0LjUyLTcuMDQgMzQuNC0xMC41NiA1OS42NS0xMC41NiAzMSAwIDU0LjYyIDYuNDEgNzAuODggMTkuMjkgMTYuMjggMTIuODEgMjUuOTIgMzMuMjQgMjkuMDQgNjEuMjdsLTcwLjUgNC42NWMtMS44Ny0xMi4yNS01LjgxLTIxLjE3LTExLjgxLTI2LjctNi4wNS01LjYtMTQuMzUtOC4zNi0yNC45LTguMzYtOC43MSAwLTE1LjMxIDIuMDctMTkuNzMgNi4xNi00LjQgNC4wOS02LjU5IDkuMTItNi41OSAxNS4wMiAwIDQuMjcgMS44MSA4LjExIDUuMzcgMTEuNTcgMy40NSAzLjU5IDExLjggNi44NSAyNS4wMiA5LjkzIDMyLjc1IDcuODYgNTYuMiAxNS44NCA3MC4zMSAyMy44NyAxNC4xOCA4LjA1IDI0LjUyIDE3Ljk4IDMwLjk2IDI5LjkyIDYuNDQgMTEuODggOS42NiAyNS4yIDkuNjYgMzkuOTYgMCAxNy4yOS00LjMgMzMuMjQtMTIuODggNDcuODktOC42MyAxNC41OC0yMC42MSAyNS43LTM2LjA4IDMzLjI0LTE1LjQxIDcuNTQtMzQuODUgMTEuMzEtNTguMzMgMTEuMzEtNDEuMjQgMC02OS44MS04Ljg2LTg1LjY4LTI2LjUyLTE1Ljg4LTE3LjY1LTI0Ljg1LTQwLjA5LTI2Ljk2LTY3LjN6bTI0OC43NC00NS41YzAtNDQuMDUgMTEuMDItNzguMzYgMzMuMDktMTAyLjg3IDIyLjA5LTI0LjU3IDUyLjgyLTM2LjgyIDkyLjI0LTM2LjgyIDQwLjM4IDAgNzEuNSAxMi4wNyA5My4zNCAzNi4xMyAyMS44NiAyNC4xMyAzMi43NyA1Ny45NCAzMi43NyAxMDEuMzcgMCAzMS41NC00Ljc1IDU3LjM2LTE0LjMgNzcuNTQtOS41NCAyMC4xOC0yMy4zNyAzNS44OS00MS40IDQ3LjEzLTE4LjA3IDExLjI0LTQwLjU1IDE2Ljg0LTY3LjQ4IDE2Ljg0LTI3LjMzIDAtNDkuOTktNC44My02Ny45NC0xNC41Mi0xNy45Mi05Ljc0LTMyLjQ5LTI1LjA3LTQzLjYyLTQ2LjA2LTExLjEzLTIwLjkyLTE2LjcyLTQ3LjE5LTE2LjcyLTc4Ljc0em03NC44OS4xOWMwIDI3LjIxIDQuNTcgNDYuODEgMTMuNjggNTguNjggOS4xMyAxMS44OCAyMS41NyAxNy44NSAzNy4yNiAxNy44NSAxNi4xIDAgMjguNjUtNS44NCAzNy40NS0xNy40NyA4Ljg3LTExLjY4IDEzLjI4LTMyLjU0IDEzLjI4LTYyLjc3IDAtMjUuMzktNC42My00My45Mi0xMy44NC01NS42MS05LjI2LTExLjc2LTIxLjc1LTE3LjYtMzcuNTYtMTcuNi0xNS4xMyAwLTI3LjM0IDUuOTctMzYuNDkgMTcuODUtOS4yMSAxMS44OC0xMy43OCAzMS42MS0xMy43OCA1OS4wN3ptMjA5LjA4LTEzNS4zNmg2OS45OWw5MC45OCAxNDkuMDVWNzM1LjkxaDcwLjgzdjI2OS45NmgtNzAuODNsLTkwLjQ4LTE0OC4yNHYxNDguMjRoLTcwLjQ5VjczNS45MXptNjcuNzEtMTE3LjQ3aDE3OC4zN2M0NS4xIDAgODIgMzcuMDQgODIgODJ2MzQwLjkxYzAgNDQuOTYtMzcuMDMgODEuOTktODIgODEuOTloLTE3OC4zN3YxNDdjMCAxNy41LTYuOTkgMzIuOTktMTguNSA0NC41LTExLjUgMTEuNDktMjcgMTguNS00NC41IDE4LjVINjIuOTdjLTE3LjUgMC0zMi45OS03LTQ0LjUtMTguNS0xMS40OS0xMS41LTE4LjUtMjctMTguNS00NC41VjYzLjQ5YzAtMTcuNSA3LTMzIDE4LjUtNDQuNVM0NS45Ny40OSA2Mi45Ny40OUg3MDAuMWMxLjUtLjUgMy0uNSA0LjUtLjUgNyAwIDE0IDMgMTkgNy40OWgxYzEgLjUgMS41IDEgMi41IDJsMzI1LjQ2IDMyOS40N2M1LjUgNS41IDkuNSAxMyA5LjUgMjEuNSAwIDIuNS0uNSA0LjUtMSA3djI1MC45OHpNNzMyLjYxIDMwMy40N1Y5Ni45OWwyMzIuNDggMjM1LjQ3SDc2MS42Yy03Ljk5IDAtMTQuOTktMy41LTIwLjUtOC40OS00Ljk5LTUtOC40OS0xMi41LTguNDktMjAuNXoiLz48L3N2Zz4=;" vertex="1" parent="71"><mxGeometry x="18" y="14.580000000000041" width="49.47" height="49.8" as="geometry"/></mxCell><mxCell id="39" value="" style="shape=image;imageAspect=0;aspect=fixed;verticalLabelPosition=bottom;verticalAlign=top;image=data:image/svg+xml,PHN2ZyB4bWxuczp4bGluaz0iaHR0cDovL3d3dy53My5vcmcvMTk5OS94bGluayIgeG1sbnM9Imh0dHA6Ly93d3cudzMub3JnLzIwMDAvc3ZnIiB4bWw6c3BhY2U9InByZXNlcnZlIiBzdHlsZT0iZW5hYmxlLWJhY2tncm91bmQ6bmV3IDAgMCAxMTUuMjggMTIyLjg4IiB2aWV3Qm94PSIwIDAgMTE1LjI4IDEyMi44OCIgeT0iMHB4IiB4PSIwcHgiIGlkPSJMYXllcl8xIiB2ZXJzaW9uPSIxLjEiPjxzdHlsZSB0eXBlPSJ0ZXh0L2NzcyI+LnN0MHtmaWxsLXJ1bGU6ZXZlbm9kZDtjbGlwLXJ1bGU6ZXZlbm9kZDt9PC9zdHlsZT48Zz48cGF0aCBkPSJNMjUuMzgsNTdoNjQuODhWMzcuMzRINjkuNTljLTIuMTcsMC01LjE5LTEuMTctNi42Mi0yLjZjLTEuNDMtMS40My0yLjMtNC4wMS0yLjMtNi4xN1Y3LjY0bDAsMEg4LjE1IGMtMC4xOCwwLTAuMzIsMC4wOS0wLjQxLDAuMThDNy41OSw3LjkyLDcuNTUsOC4wNSw3LjU1LDguMjR2MTA2LjQ1YzAsMC4xNCwwLjA5LDAuMzIsMC4xOCwwLjQxYzAuMDksMC4xNCwwLjI4LDAuMTgsMC40MSwwLjE4IGMyMi43OCwwLDU4LjA5LDAsODEuNTEsMGMwLjE4LDAsMC4xNy0wLjA5LDAuMjctMC4xOGMwLjE0LTAuMDksMC4zMy0wLjI4LDAuMzMtMC40MXYtMTEuMTZIMjUuMzhjLTQuMTQsMC03LjU2LTMuNC03LjU2LTcuNTYgVjY0LjU1QzE3LjgyLDYwLjQsMjEuMjIsNTcsMjUuMzgsNTdMMjUuMzgsNTd6IE0yOS45OCw2OC43Nmg3Ljc2bDQuMDMsN2wzLjkyLTdoNy42NmwtNy4wNywxMS4wMmw3Ljc0LDExLjczaC03LjkxbC00LjQ3LTcuMzEgbC00LjUsNy4zMWgtNy44NWw3Ljg1LTExLjg2TDI5Ljk4LDY4Ljc2TDI5Ljk4LDY4Ljc2eiBNNTUuNzIsNjguNzZINjVsMy41MywxMy44NWwzLjU0LTEzLjg1aDkuMjN2MjIuNzZoLTUuNzVWNzQuMTdsLTQuNDQsMTcuMzUgSDY1LjlsLTQuNDMtMTcuMzV2MTcuMzVoLTUuNzVWNjguNzZMNTUuNzIsNjguNzZ6IE04NS4zMSw2OC43Nmg3LjAzdjE3LjE2aDExdjUuNTlIODUuMzFWNjguNzZMODUuMzEsNjguNzZ6IE05Ny43OSw1N2g5LjkzIGM0LjE2LDAsNy41NiwzLjQxLDcuNTYsNy41NnYzMS40MmMwLDQuMTUtMy40MSw3LjU2LTcuNTYsNy41NmgtOS45M3YxMy41NWMwLDEuNjEtMC42NSwzLjA0LTEuNyw0LjFjLTEuMDYsMS4wNi0yLjQ5LDEuNy00LjEsMS43IGMtMjkuNDQsMC01Ni41OSwwLTg2LjE4LDBjLTEuNjEsMC0zLjA0LTAuNjQtNC4xLTEuN2MtMS4wNi0xLjA2LTEuNy0yLjQ5LTEuNy00LjFWNS44NWMwLTEuNjEsMC42NS0zLjA0LDEuNy00LjEgYzEuMDYtMS4wNiwyLjUzLTEuNyw0LjEtMS43aDU4LjcyQzY0LjY2LDAsNjQuOCwwLDY0Ljk0LDBjMC42NCwwLDEuMjksMC4yOCwxLjc1LDAuNjloMC4wOWMwLjA5LDAuMDUsMC4xNCwwLjA5LDAuMjMsMC4xOCBsMjkuOTksMzAuMzZjMC41MSwwLjUxLDAuODgsMS4yLDAuODgsMS45OGMwLDAuMjMtMC4wNSwwLjQxLTAuMDksMC42NVY1N0w5Ny43OSw1N3ogTTY3LjUyLDI3Ljk3VjguOTRsMjEuNDMsMjEuN0g3MC4xOSBjLTAuNzQsMC0xLjM4LTAuMzItMS44OS0wLjc4QzY3Ljg0LDI5LjQsNjcuNTIsMjguNzEsNjcuNTIsMjcuOTdMNjcuNTIsMjcuOTd6IiBjbGFzcz0ic3QwIi8+PC9nPjwvc3ZnPg==;" vertex="1" parent="71"><mxGeometry x="75" y="14.009999999999877" width="46" height="48.94" as="geometry"/></mxCell><mxCell id="75" value="" style="group" vertex="1" connectable="0" parent="1"><mxGeometry x="350" y="590" width="120" height="74.92999999999995" as="geometry"/></mxCell><mxCell id="72" value="Data model" style="rounded=1;whiteSpace=wrap;html=1;labelPosition=center;verticalLabelPosition=bottom;align=center;verticalAlign=top;" vertex="1" parent="75"><mxGeometry width="120" height="74.93" as="geometry"/></mxCell><mxCell id="73" value="" style="shape=image;imageAspect=0;aspect=fixed;verticalLabelPosition=bottom;verticalAlign=top;image=data:image/svg+xml,PHN2ZyB4bWxucz0iaHR0cDovL3d3dy53My5vcmcvMjAwMC9zdmciIGlkPSJzdmcyIiB4bWw6c3BhY2U9InByZXNlcnZlIiB2aWV3Qm94PSIwIDAgMzIgMzIiIGhlaWdodD0iMzJweCIgd2lkdGg9IjMycHgiIHk9IjBweCIgeD0iMHB4IiB2ZXJzaW9uPSIxLjEiPjxkZWZzIGlkPSJkZWZzMzAwMyIvPjxtZXRhZGF0YSBpZD0ibWV0YWRhdGEyOTkxIj5pbWFnZS9zdmcreG1sUElDT0wgSWNvbjIwMDktMDMtMTVNZWxpaCBCaWxnaWxDcmVhdGl2ZSBDb21tb25zIEJZLVNBUElDT0wgLSBQaWN0b3JpYWwgQ29tbXVuaWNhdGlvbiBMYW5ndWFnZWh0dHA6Ly9ibG9nLnBpY29sLm9yZ2h0dHA6Ly9ibG9nLnBpY29sLm9yZ2VuUElDT0xpY29uaWNvbnNzaWduR1VJdmVjdG9yaW50ZXJmYWNlVGhpcyBpcyBvbmUgaWNvbiBvdXQgb2YgYWxsIFBJQ09MIGljb25zTWVsaWggQmlsZ2lsICh3d3cubG9uamEuZGUpLCBDaHJpc3RvcGhlciBBZGplaSAod3d3LmJvZmZlci5uZXQpPC9tZXRhZGF0YT48ZyBpZD0iYmFja2dyb3VuZCI+PHJlY3QgaWQ9InJlY3QyOTk0IiBoZWlnaHQ9IjMyIiB3aWR0aD0iMzIiIGZpbGw9Im5vbmUiLz48L2c+PHBhdGggZD0iTSAyMi40MTQsMCBIIDQgViAzMiBIIDI4IFYgNS41ODQgTCAyMi40MTQsMCB6IE0gMjEuOTk4LDIuNDEzIDI1LjU4Niw2IEggMjEuOTk4IFYgMi40MTMgeiBNIDYsMzAgViAxLjk5OCBoIDE0IHYgNi4wMDEgaCA2IFYgMzAgSCA2IHogbSAxNiwtOS44MTYgdiAtNC4zNjcgYyAxLjE2MiwtMC40MTQgMiwtMS41MTMgMiwtMi44MTYgMCwtMS42NTYgLTEuMzQ0LC0zIC0zLC0zIC0xLjY1OCwwIC0zLDEuMzQ0IC0zLDMgMCwwLjEyNSAwLjAyMSwwLjI0MyAwLjAzNiwwLjM2MyBsIC00Ljk1OSwyLjQ3OSBDIDEyLjUzOCwxNS4zMjMgMTEuODA4LDE1IDExLDE1IGMgLTEuNjU3LDAgLTMsMS4zNDQgLTMsMyAwLDEuNjU2IDEuMzQzLDMgMywzIDAuODA5LDAgMS41MzksLTAuMzIzIDIuMDc4LC0wLjg0MyBsIDQuOTU5LDIuNDc4IEMgMTguMDIxLDIyLjc1NiAxOCwyMi44NzUgMTgsMjMgYyAwLDEuNjU2IDEuMzQyLDMgMywzIDEuNjU2LDAgMywtMS4zNDQgMywtMyAwLC0xLjMwNCAtMC44MzgsLTIuNDAyIC0yLC0yLjgxNiB6IG0gLTguMDM3LC0yLjU0OCA0Ljk1OCwtMi40NzkgYyAwLjMwNSwwLjI5MyAwLjY3MywwLjUxNSAxLjA3OSwwLjY2IHYgNC4zNjcgYyAtMC40MDYsMC4xNDUgLTAuNzc0LDAuMzY2IC0xLjA3OCwwLjY1OSBMIDEzLjk2NCwxOC4zNjUgQyAxMy45NzgsMTguMjQ0IDE0LDE4LjEyNSAxNCwxOCAxNCwxNy44NzUgMTMuOTc4LDE3Ljc1NyAxMy45NjMsMTcuNjM2IHoiIGlkPSJwYXRoMjk5OSIvPjwvc3ZnPg==;" vertex="1" parent="75"><mxGeometry x="10" y="12.92999999999995" width="52" height="52" as="geometry"/></mxCell><mxCell id="74" value="" style="shape=image;imageAspect=0;aspect=fixed;verticalLabelPosition=bottom;verticalAlign=top;image=data:image/svg+xml,PHN2ZyB4bWxuczp4bGluaz0iaHR0cDovL3d3dy53My5vcmcvMTk5OS94bGluayIgeG1sbnM9Imh0dHA6Ly93d3cudzMub3JnLzIwMDAvc3ZnIiB4bWw6c3BhY2U9InByZXNlcnZlIiB2aWV3Qm94PSIwIDAgMjkyIDI5MiIgaGVpZ2h0PSIyOTJweCIgd2lkdGg9IjI5MnB4IiB5PSIwcHgiIHg9IjBweCIgaWQ9IkViZW5lXzEiIHZlcnNpb249IjEuMSI+JiN4YTs8bWV0YWRhdGE+JiN4YTsmI3hhOyAgICYjeGE7ICAgICAgJiN4YTsgICAgICAgICBpbWFnZS9zdmcreG1sJiN4YTsgICAgICAgICAmI3hhOyAgICAgICAgICAgICYjeGE7ICAgICAgICAgICAgICAgRHJ1Y2smI3hhOyAgICAgICAgICAgICYjeGE7ICAgICAgICAgJiN4YTsgICAgICAmI3hhOyAgICAgICYjeGE7ICAgICAgICAgMjAxMy0wNC0yNlQxNzoyMjoyNiswMjowMCYjeGE7ICAgICAgICAgMjAxMy0wNC0yNlQxNzoyMjoyNiswMjowMCYjeGE7ICAgICAgICAgMjAxMy0wNC0yNlQxNzoyMjoyNiswMjowMCYjeGE7ICAgICAgICAgQWRvYmUgSWxsdXN0cmF0b3IgQ1M1JiN4YTsgICAgICAgICAmI3hhOyAgICAgICAgICAgICYjeGE7ICAgICAgICAgICAgICAgJiN4YTsgICAgICAgICAgICAgICAgICAyNTYmI3hhOyAgICAgICAgICAgICAgICAgIDI1NiYjeGE7ICAgICAgICAgICAgICAgICAgSlBFRyYjeGE7ICAgICAgICAgICAgICAgICAgLzlqLzRBQVFTa1pKUmdBQkFnRUFTQUJJQUFELzdRQXNVR2h2ZEc5emFHOXdJRE11TUFBNFFrbE5BKzBBQUFBQUFCQUFTQUFBQUFFQSYjeGE7QVFCSUFBQUFBUUFCLys0QURrRmtiMkpsQUdUQUFBQUFBZi9iQUlRQUJnUUVCQVVFQmdVRkJna0dCUVlKQ3dnR0JnZ0xEQW9LQ3dvSyYjeGE7REJBTURBd01EQXdRREE0UEVBOE9EQk1URkJRVEV4d2JHeHNjSHg4Zkh4OGZIeDhmSHdFSEJ3Y05EQTBZRUJBWUdoVVJGUm9mSHg4ZiYjeGE7SHg4Zkh4OGZIeDhmSHg4Zkh4OGZIeDhmSHg4Zkh4OGZIeDhmSHg4Zkh4OGZIeDhmSHg4Zkh4OGZIeDhmLzhBQUVRZ0JBQUVBQXdFUiYjeGE7QUFJUkFRTVJBZi9FQWFJQUFBQUhBUUVCQVFFQUFBQUFBQUFBQUFRRkF3SUdBUUFIQ0FrS0N3RUFBZ0lEQVFFQkFRRUFBQUFBQUFBQSYjeGE7QVFBQ0F3UUZCZ2NJQ1FvTEVBQUNBUU1EQWdRQ0JnY0RCQUlHQW5NQkFnTVJCQUFGSVJJeFFWRUdFMkVpY1lFVU1wR2hCeFd4UWlQQiYjeGE7VXRIaE14Wmk4Q1J5Z3ZFbFF6UlRrcUt5WTNQQ05VUW5rNk96TmhkVVpIVEQwdUlJSm9NSkNoZ1poSlJGUnFTMFZ0TlZLQnJ5NC9QRSYjeGE7MU9UMFpYV0ZsYVcxeGRYbDlXWjJocGFtdHNiVzV2WTNSMWRuZDRlWHA3ZkgxK2YzT0VoWWFIaUltS2k0eU5qbytDazVTVmxwZVltWiYjeGE7cWJuSjJlbjVLanBLV21wNmlwcXF1c3JhNnZvUkFBSUNBUUlEQlFVRUJRWUVDQU1EYlFFQUFoRURCQ0VTTVVFRlVSTmhJZ1p4Z1pFeSYjeGE7b2JId0ZNSFI0U05DRlZKaWN2RXpKRFJEZ2hhU1V5V2lZN0xDQjNQU05lSkVneGRVa3dnSkNoZ1pKalpGR2lka2RGVTM4cU96d3lncCYjeGE7MCtQemhKU2t0TVRVNVBSbGRZV1ZwYlhGMWVYMVJsWm1kb2FXcHJiRzF1YjJSMWRuZDRlWHA3ZkgxK2YzT0VoWWFIaUltS2k0eU5qbyYjeGE7K0RsSldXbDVpWm1wdWNuWjZma3FPa3BhYW5xS21xcTZ5dHJxK3YvYUFBd0RBUUFDRVFNUkFEOEF2TzZmUEhZcTdGWFlxN0ZYWXE3RiYjeGE7WFlxN0ZYWXE3RlhZcTdGWFlxN0ZYWXE3RlhZcTdGWFlxN0ZYWXE3RlhZcTdGWFlxN0ZYWXE3RlhZcTdGWFlxN0ZYWXE3RlhZcTdGWCYjeGE7WXE3RlhZcTdGWFlxN0ZYWXE3RlhZcTdGWFlxN0ZYWXE3RlhZcTdGWFlxN0ZYWXE3RlhZcTdGWFlxN0ZYWXE3RlhZcTdGWFlxN0ZYWSYjeGE7cTdGWFlxN0ZYWXE3RlhZcTdGWFlxN0ZYWXE3RlhZcTdGWFlxN0ZYWXE3RlhZcTdGWFlxN0ZYWXE3RlhZcTdGWFlxN0ZYWXE3RlhZcSYjeGE7N0ZYWXE3RlhZcTdGWFlxN0ZYWXE3RlhZcTdGWFlxN0ZYWXE3RlhZcTdGWFlxN0ZYWXE3RlhZcTdGWFlxN0ZYWXE3RlhZcTdGWFlxNyYjeGE7RlhZcTdGWFlxN0ZYWXE3RlhZcTdGWFlxN0ZYWXE3RlhZcTdGWFlxN0ZYWXE3RlhZcTdGWFlxN0ZYWXE3RlhZcTdGWFlxN0ZYWXE3RiYjeGE7WFlxN0ZYWXE3RlhZcTdGWFlxN0ZYWXE3RlhZcTdGWFlxN0ZYWXE3RlhZcTdGWFlxN0ZYWXE3RlhZcTdGWFlxN0ZYWXE3RlhZcTdGWCYjeGE7WXE3RlhZcTdGWFlxN0ZYWXE3RlhZcTdGWFlxN0ZYWXE3RlhZcTdGWFlxN0ZYWXE3RlhZcTdGWFlxN0ZYWXE3RlhZcTdGWFlxN0ZYWSYjeGE7cTdGWFlxN0ZYWXE3RlhZcTdGWFlxN0ZYWXE3RlhZcTdGWFlxN0ZYWXE3RlhZcTdGWFlxN0ZYWXE3RlhZcTdGWFlxN0ZYWXE3RlhZcSYjeGE7N0ZYWXE3RlhZcTdGWFlxN0ZYWXE3RlhZcTdGWFlxN0ZYWXE3RlhZcTdGWFlxN0ZYWXE3RlhZcTdGWFlxN0ZYWXE3RlhZcTdGWFlxNyYjeGE7RlhZcTdGWFlxN0ZYWXE3RlhZcTdGWFlxN0ZYWXE3RlhZcTlDOGovbGZEcm1rZnBMVVo1YmRKV0l0VWk0Z3NpN0Z6eUI2bnBtbzF2YSYjeGE7UnhUNFlnSHZkM29PeWhsaHh5SkY4bVJmOHFUMEQvbHV1LzhBa24velJtSC9BQ3prN2g5cm0veUhqL25TK3gzL0FDcFBRUDhBbHV1LyYjeGE7K1NmL0FEUmovTE9UdUgyci9JZVArZEw3SGY4QUtrOUEvd0NXNjcvNUovOEFOR1A4czVPNGZhdjhoNC81MHZzU2p6WCtXbmxuUU5FbiYjeGE7MUdTK3VXa1VjTGVJbVA0NVcreXYyZnBQdG1ScGUwY3VXWWlBSEcxZlplTERqTWpLWGx5NXZOWW9wSnBVaGlVdkxJd1JFRzVMTWFBRCYjeGE7NW5OMFNBTExvUUNUUWV0Mlg1S2FXYlNFM2w3Y0xkRkZNNngrbndEa2ZFRnFwTkFjNStmYkVyUENCVDBrT3c0Y0k0cEcxYi9sU2VnZiYjeGE7OHQxMy93QWsvd0RtakkveXprN2g5clArUThmODZYMk8vd0NWSjZCL3kzWGYvSlAvQUpveC9sbkozRDdWL2tQSC9PbDlqdjhBbFNlZyYjeGE7Zjh0MTMveVQvd0NhTWY1WnlkdysxZjVEeC96cGZZd3I4d1BLdWhlVzViYTBzN21hNHZaUVpKVmtLY1VqNkw5bFJ1eC9WbXowR3F5WiYjeGE7Z1RJQVJkVjJqcE1lQWlNU1RKaUdiQjFqc1ZkaXJzVmRpcnNWZGlyc1ZkaXJzVmRpcnNWZGlyc1ZkaXJzVmRpcnNWZGlyc1ZUbnlsNSYjeGE7ZG04d2E1QnA2VldJbm5jeUQ5aUpmdEg1OWg3bk1iVmFnWW9HWHk5N2xhUFRITmtFZm43bjBYYjI4TnRieDI4Q0NPR0ZWamlRZEZWUiYjeGE7UUFmSVp4OHBFbXp6ZTNqRVJBQTVCVXdNbllxN0ZYaGY1bythdjB4cmhzN2Q2Mkdua3hwVG84dlNSL3ZIRWYyNTFIWm1tOE9IRWZxayYjeGE7OGoycnEvRnljSSttUDNwbitUL2xiNjFmUHJ0eWxZTFFsTFFFYk5NUnUzK3dCKzgrMlVkcmFuaGo0WTVubjduSTdHMG5GTHhEeWp5OSYjeGE7L3dDeDdEblBQVE94VjJLb1RWdFV0ZEwwMjQxQzZiakJib1hieFBnbzkyT3d5ekZqTTVDSTVscXpaUmpnWkhrSHpmck9yWFdyYXBjNiYjeGE7amRHczF3NVlqc282S285bEd3enNjT0lZNGlJNUI0YlBtT1Naa2VaUVdXdFRzVmRpcnNWZGlyc1ZkaXJzVmRpcnNWZGlyc1ZkaXJzViYjeGE7ZGlyc1ZkaXJzVmRpcnNWZTYvbGY1Vy9RMmhpN3VFNDZocUFFa2xSdWtmOEF1dFB1UEkvUDJ6bHUwdFQ0azZIMHhldjdLMG5oWStJLyYjeGE7Vkw4Qm1lYTUyanNWZGlyRS93QXlmTlA2QzBGa2dmanFGOVdLMnAxVVUrT1QvWWc3ZTVHWi9aMm04WEp2OU1lYnJlMDlYNE9QYjZwYyYjeGE7djF2RDlIMHE2MVhVN2ZUclVWbnVYQ0w0QWRXWSt5amM1MDJYS01jVEk4ZzhuaHhISk1SSE12cERSOUt0ZEoweTMwNjFGSUxaQWkxNiYjeGE7azlXWSs3R3BPY2RseW5KSXlQTXZjNGNJeHdFUnlDTXl0dGRpcnNWZVFmbkI1cCtzM2lhRGF2OEF1TFVpUzhJNk5LUjhLZjdBSDd6NyYjeGE7WjBQWk9tb2VJZVo1ZTU1bnRuVjhVdkRISWMvZTgyemN1aWRpcnNWZGlyc1ZkaXJzVmRpcnNWZGlyc1ZkaXJzVmRpcnNWZGlyc1ZkaSYjeGE7cnNWZGlyTHZ5MThyZnB6WGxsblRscDlqU1c0cU5tYXY3dVAvQUdSRlQ3RE5mMmpxZkN4MFBxazdQc3ZTZUxrcy9USG4rcDcxbkt2WSYjeGE7T3hWMktyWlpZNG9ubGxZSkhHcFozWTBBVUNwSlB0aEFKTkJCSUFzdm5ienA1a2s4d2E5UGUxSXRrL2RXYUhha1NuWTA4VyswZm5uWCYjeGE7NlBUK0ZqRWV2WDN2RTY3VkhOa011blQzUFEveWY4cS9WYko5ZXVrL2YzWUtXZ0kzV0VING0vMlpIM0QzelVkcmFyaWw0WTVEbjczZCYjeGE7OWphVGhqNGg1bmw3djJ2U00wenZIWXE3RlVsODQrWTR2TCtoVDM3VU01L2Qyc1ovYWxiN1AwRDdSOWhtVHBOT2N1UVI2ZGZjNG10MSYjeGE7SXc0ekxyMDk3NTBtbWxubWtubVl2TEt4ZVIyM0xNeHFTZm1jN0FBQVVIaVpTSk5ubXN3c1hZcTdGWFlxN0ZYWXE3RlhZcTdGWFlxNyYjeGE7RlhZcTdGWFlxN0ZYWXE3RlhZcTdGWFlxK2kvSlhsMkRRZEF0N1JPTFR1UFZ1cFZvUThqZ1ZvUjFBR3c5czQvV2FnNWNoUFRvOXZvZCYjeGE7TU1PTVI2OVU5ekZjeDJLdXhWNTcrY1BtS2F4MHFIU1lBeXRxTlROTFFnZWtoRlVCOFdKRmZiNTV0K3lkT0pUTXovRDk3cGUydFNZUSYjeGE7RUIvRjl6ekh5am9hNjU1aHM5TmR4SEZLeGFacTBQQkFXWUw3a0NnemRhck40V015ZEJvOEhpNVJCOUhRd3hReEpERW9TS05Ra2FMcyYjeGE7QXFpZ0ErUXpqeVNUWmU0aUFCUVhZRXV4VjJLdkMvelU4eFQ2bjVqa3NnR1MxMHdtR05HQkZaUDkyUFErSkZCN0N2Zk9vN00wNGhqNCYjeGE7dXNua2UxdFNjbVhoNlIyL1drR2orVnRmMW1HU2JUTFEzTWNUY0pDcklDRFN1NFpnY3lzdXB4NHpValRoNGRKa3lpNEMwdy81VnY1MiYjeGE7L3dDclcvOEF3Y1gvQURWbFg4b1lQNTMzdDM4bWFqK2I5enYrVmIrZHYrclcvd0R3Y1gvTldQOEFLR0QrZDk2L3lacVA1djNPL3dDViYjeGE7YitkdityVy8vQnhmODFZL3loZy9uZmV2OG1haitiOXlqZCtRdk45cGF5M1Z4cHNpUVFxWGxmbEdlS3FLazBERTdaS0d1d3lOQ1c1WSYjeGE7ejdQenhCSmpzRWd6TGNKa0Z0NUE4MzNWdkZjMituTkpCTW9raWtWNHFNckNvSStMTU9XdXd4TkdXNDk3bXg3UHp5QUlqc2ZjcS84QSYjeGE7S3QvTzMvVnJmL2c0dithc0g4b1lQNTMzc3Y1TTFIODM3bmY4cTM4N2Y5V3Qvd0RnNHY4QW1ySCtVTUg4NzcxL2t6VWZ6ZnVkL3dBcSYjeGE7Mzg3ZjlXdC8rRGkvNXF4L2xEQi9PKzlmNU0xSDgzN2t1MWp5dnIyalJ4eWFuWnZiSk1Tc2JFcXdKRzVGVkxVeTdEcWNlVDZUYlJtMCYjeGE7dVRGUm1LdEs4dmNkMkt1eFYyS3V4VjJLdXhWMkt1eFYyS3ZhZnlrODFmcEhTanBGeTlielQxSG9rOVh0K2kvOEFmaCtWTTV2dFhUYyYjeGE7RStNY3BmZTlWMlBxK09IQWZxajkzN0dmNXFYY3V4VjJLc2Q4OStXRTh3YURMYklCOWRoL2ZXYmY4V0tQczE4SEczNDlzek5GcWZDeSYjeGE7QTlEemNMdERTK05qSS9pRzRlQTJsMWQ2ZGZSWE1KTU4xYXlCMEpGQ3JvZWhCL0VaMWM0aWNhUEl2R3duS0VnUnNRK2p2TGV1VzJ1YSYjeGE7TmJhbEJzSmwvZVIxcVVrR3pvZmtmd3pqdFJoT0taaVh1Tk5xQmx4aVk2cGxsTGU3RlhZcThzL09QeXR0SDVodFU2Y1liOEQ3bzVELyYjeGE7QU1SUDBadmV5ZFQvQUpNL0I1N3RyU2Y1VWU0L29QNkdJL2w3NXBPZ2E4anl0U3d1NlEzZzdBRS9ESi9zRCtGY3o5ZnB2Rng3ZlVPVCYjeGE7cmV6dFg0T1RmNlRzZjEvQjlBZ2dnRUdvTzRJemszczNZcTdGV21WV1Vxd0RLd295bmNFSEZTSHozNTg4c041ZjE2V0NNSDZsUFdheiYjeGE7Yi9JSjNUNW9kczY3UTZueGNkL3hEbThWMmhwZkJ5RUQ2VHVHYmZrNzVwOVNHVHkvZFA4QUhGV1d4SjdwMWVQNkQ4UStud3pXZHJhYSYjeGE7ajRnK0x0dXhkWFk4SS9CNmZta2QrN0ZYWXFsWG1qUUlOZTBTNDA2V2dhUWNvSkQreEt1Nk45L1gyeS9UWnppbUpCeHRYcHhteG1KLyYjeGE7QmZPTjNhM0ZwZFMydHdoam5nY3h5b2VvWlRRak94aklTQUk1RjRlY0RFa0htRkxKTVhZcTdGWFlxN0ZYWXE3RlhZcTdGVXg4djYzYyYjeGE7NkpyRnRxVnZ1OERWZEswRG9kblEvd0NzTXB6NFJrZ1lucTM2Yk9jVXhNZEgwZnAxL2JhaFl3WHRxM08zdUVFa2JlekRvZmNkRG5IWiYjeGE7SUdFakU4dzl6anlDY1JJY2lpTWd6ZGlyc1ZlTC9tMzVWL1IrcURXTFpLV2wrMzc0RG9zL1UvOEFCajR2blhPazdLMVBISGdQT1AzUCYjeGE7TGRzYVRnbnhqNlpmZisxUy9LZnpUK2pOWU9sM0wwc3RSSVZDVHNrL1JEL3Mvc242TVBhbW00NGNRK3FQM01leU5YNGMrQS9UTDczdCYjeGE7dWMwOVc3RlhZcW8zdG5iM3RwTmFYS0NTQ2RHamxROTFZVU9TaE14SUk1aGpPQWxFeFBJdm5IekxvVnhvV3RYT216VlBwTldLUS90eCYjeGE7dHVqZlNPdnZuWTZmT01zQklQRGFyVG5Ga01DOWEvS2p6VCtsTkcvUmx5OWI3VGdGVW5xOEhSRC9BTEg3SitqTkIycHB1Q2ZFUHBsOSYjeGE7NzBuWkdyOFNIQWZxajl6T3MxYnQzWXE3RldNL21CNVhIbURRSklvbHJmMjFack05eXdIeEovc3h0ODZabTZEVStGa3MvU2ViZ2RvNiYjeGE7VHhzZEQ2aHVIZzJuMzEzcHVvUTNsc3hqdWJadzZIM1U5Q1BBOUNNNm5KQVRpWW5rWGo4ZVNXT1FrT1lmUitnYTFiYTFwRnRxVnY4QSYjeGE7WW5XckpXcFJ4c3lIL1ZPY2Rud25ITXhQUjduVDV4bGdKanFtR1ZOenNWZGlyeWY4NHZLM0NTUHpEYXBSWktSWDRBNk4wamtQeit5ZiYjeGE7b3pmZGs2bS8zWitEem5iV2tvK0tQait0NWZtOGVmZGlyc1ZkaXJzVmRpcnNWZGlyc1ZkaXIxRDhuZk5QQ1NUeTlkUFJaS3kyQko2TiYjeGE7MWtqSHorMFBwelI5cmFhLzNnK0wwSFl1cm8rRWZoK3A2eG1oZWpkaXJzVlMvWDlGdHRhMGk1MDI0K3hPdEZlbFNqamRYSCtxY3R3WiYjeGE7amptSkRvMDZqQU1zREE5WHpocUZqZDZicUUxbmNxWTdtMmNvNDkxUFVId1BVSE94eHpFNGlRNUY0YkpqbGprWW5tSHZQNWYrYUI1ZyYjeGE7MENPV1ZxMzl0U0c4SGNzQjhMLzdNYi9PdWN0cjlONFdTaDlKNVBZZG5hdnhzZG42aHNXVFpoT2U3RlhZcXdYODEvSzM2VTBiOUoyeSYjeGE7VnZ0T0JaZ09yd2RYSCt4KzBQcHphZGw2bmdud242WmZlNmp0ZlNlSkRqSDFSKzU1TDVhMTI0MExXcmJVb2FuMG1wTEdQMjQyMmRmcCYjeGE7SFQzemY2akFNc0RFdk42WFVIRmtFdytqcks4dDcyMGh1N1p4SkJPaXlST082c0tqT09uQXhKQjVoN21FeEtJa09SVnNpeWRpcnNWZSYjeGE7SmZteDVXL1Jtc0RWTFpLV1dva3M0QTJTZnE0LzJmMmg5T2RMMlhxZU9IQ2Zxajl6eW5hK2s4T2ZHUHBsOTZyK1VubXI5SDZvZEh1WCYjeGE7cGFYN2Z1U2VpejlCL3dBR1BoK2RNSGF1bTQ0OFk1eCs1bDJQcStDZkFmcGw5LzdYdEdjMjlTN0ZYWXFoOVJzTGJVTEdleXVsNTI5dyYjeGE7aGprWDJZZFI3anFNbmptWVNFaHpEREpqRTRtSjVGODRlWU5FdWRFMWk1MDI0M2VCcUk5S0IwTzZPUDhBV0dkamd6REpBU0hWNGJVNCYjeGE7RGltWUhvbDJYTkRzVmRpcnNWZGlyc1ZkaXJzVmRpcXJhWFZ4YVhVVjFidVk1NEhFa1RqcUdVMUJ5TW9pUUlQSXNvVE1TQ09ZZlIzbCYjeGE7Zlg0TmUwUzMxR0tnYVFjWjR4K3hLdXpyOS9UMnpqdFRnT0taaVh1TkpxQm14aVEvQlRYS0hKZGlyc1ZlWWZuRjVXOVNHUHpCYXA4YyYjeGE7VklyNER1blJKUG9Qd242UEROMzJUcWFQaG40T2c3YTBsanhSOFdFK1EvTTdlWDllaW5rSitwVDBodkYveUNkbithSGZObnJ0TjR1TyYjeGE7djRoeWRUMmZxdkJ5QW42VHNYMElyS3lobElaV0ZWWWJnZzV5TDJvTGVLdXhWeEFJSUlxRHNRY1ZmUDM1aGVWam9Hdk9rUzBzTHVzMSYjeGE7bWV3QlB4Ui83QS9oVE9zMEdwOFhIdjhBVU9ieG5hT2s4SEp0OUozSDZ2Z3k3OG5QTk8wbmw2NmZweW1zQ2Z2a2pIL0VoOU9ZSGEybSYjeGE7L3dBb1BpN0xzWFYvNUkrOGZwSDZYcWVhSjZGMkt1eFZMZk1taDIydWFOYzZiUHNKbC9keVVxVWtHNk9Qa2Z3eTdUNWppbUpCbzFPbiYjeGE7R1hHWUhxK2NidTF1OU92cGJhWUdHNnRaQ2pnR2hWMFBVRWZnYzdHRWhPTmprWGg1d2xDUkIySWUvZVJQTTZlWU5CaXVYSSt1dy91YiYjeGE7eGY4QWl4Ujlxbmc0My9EdG5LYTNUZUZrSTZIazlsMmZxdkd4Zy94RFlzaXpEYzEyS3V4VmdINXQrVmYwanBRMWUyU3Q1cDZuMWdPciYjeGE7Mi9WditBUHhmS3ViYnNyVThFK0E4cGZlNmJ0alNjY09NZlZIN3YyUEZzNlI1VjJLdXhWMkt1eFYyS3V4VjJLdXhWMktwcG8vbWpYdCYjeGE7R2prajB5OGUyU1locEZBVmdTTmdhTUdwbEdiVFk4bjFDM0l3NnJKaXNRTldtUDhBeXNqenQvMWRILzRDTC9tbktmNVB3ZnpmdmIvNSYjeGE7VDFIODc3bmY4ckk4N2Y4QVYwZi9BSUNML21uSCtUOEg4MzcxL2xQVWZ6dnVkL3lzanp0LzFkSC9BT0FpL3dDYWNmNVB3ZnpmdlgrVSYjeGE7OVIvTys1U3VmUDhBNXZ1cmVXMnVOUmFTQ1pUSExHeVJVWldGQ0Q4T0dPaHd4TmlPNDk3R1hhR2VRSU10ajdtUDVtT0VuOXA1OTgzMiYjeGE7bHJGYTIrcFNKQkNvU0pPTVo0cW9vQlVxVHRtSlBRNFpHekhjdWJEdERQRUFDV3dWditWa2Vkdityby8vQUFFWC9OT1Ivay9CL04rOSYjeGE7bC9LZW8vbmZjNy9sWkhuYi9xNlAvd0FCRi96VGovSitEK2I5Ni95bnFQNTMzTy81V1I1Mi93Q3JvLzhBd0VYL0FEVGovSitEK2I5NiYjeGE7L3dBcDZqK2Q5eVg2eDVwMS9XWVk0ZFR1emN4eE56akRLZ0lOS2JGVkJ5M0Zwc2VNM0VVMDV0WGt5aXBtMC84QXlyOHV6Nm41amp2UyYjeGE7V1MxMHdpYVIxSkZaUDkxcFVlSkZUN0NuZk1YdFBVQ0dQaDZ5Y3pzblRISmw0dWtkL3dCVDNUT1hldWRpcnNWV3pUUlF4UE5Ld1NLTiYjeGE7UzhqdHNBcWlwSitRd2dFbWdpUkFGbDg0K2J0Y1hYUE1ONXFTSUk0cFdDd3JTaDRJQXFsdmNnVk9kaHBjUGhZeEY0ZldaL0Z5bWIwNyYjeGE7OG52THMxanBVMnJUbGxiVWFDR0twQTlKQ2FPUjRzU2FlM3p6UzlyYWdTbUlEK0g3M2Y4QVl1bU1JR1ovaSs1NkZtb2QwN0ZYWXFrWCYjeGE7blh6RkJvT2dYRjIvRnAzSHBXc1RVSWVSd2FWQjZnRGMrMlpXajA1eTVBT25WdzlkcVJoeG1YWG8rZE03QjRoMkt1eFYyS3V4VjJLdSYjeGE7eFYyS3V4VjJLdXhWMkt1eFYyS3V4VjJLdXhWMkt1eFYyS3I0WVpaNW80SVZMeXlzRWpSZHl6TWFBRDVuQVNBTExLTVNUUTV2b3Z5ZCYjeGE7NWNpOHY2RkJZTFF6bjk1ZFNEOXFWdnRmUVBzajJHY2ZxOVFjdVF5NmRQYzl0b3RNTU9NUjY5ZmVuV1l6bHV4VjJLdk4vd0E0UE5YMSYjeGE7V3lUUWJWLzM5MkE5MlFkMWhCK0ZmOW1SOXc5ODNQWk9sNHBlSWVRNWU5MGZiT3I0WStHT1o1Kzc5cnp6eVg1Yms4d2E5QlpVSXRrLyYjeGE7ZTNqamFrU25jVjhXK3lQbm0zMW1vOExHWmRlbnZkSm9kS2MyUVI2ZGZjK2lZb280b2tpaVVKSEdvVkVVVUFVQ2dBSHRuSUVrbXk5cyYjeGE7QUFLQzdBbDJLdXhWNEwrWlhtbjlPYTgwVUQ4dFBzYXhXOURzelYvZVNmN0lpZzloblZkbmFid3NkbjZwUEg5cWF2eGNsRDZZOHYxcyYjeGE7UnpZT3NkaXJzVmRpcnNWZGlyc1ZkaXJzVmRpcnNWZGlyc1ZkaXJzVmRpcnNWZGlyc1ZkaXIwbjhuL0szMW04ZlhycFAzRnFUSFpnOSYjeGE7R2xJK0ovOEFZQS9lZmJOTjJ0cWFIaGptZWZ1ZDcyTnBPS1hpSGtPWHZldjV6ejB6c1ZkaXFEMWpWYlhTZE11TlJ1alNDMlF1MU9wUCYjeGE7UlZIdXhvQmxtTEVja2hFY3kxWnN3eHdNanlENXYxalZiclZkVHVOUnVqV2U1Y3UzZ0IwVlI3S05oblk0c1F4eEVSeUR3MmJLY2t6SSYjeGE7OHk5dy9MYnl0K2d0QlY1MDQ2aGZVbHVhOVZGUGdqLzJJTy91VG5NOW82bnhjbTMweDVQV2RtYVR3Y2UvMVM1L3FaWm1BN0oyS3V4ViYjeGE7aG41b2VhZjBOb1p0TGQrT29hZ0RISFE3cEgvdXgvdVBFZlAyelk5bTZieEoyZnBpNnZ0WFYrRmo0UjlVdndYaFdkUzhnN0ZYWXE3RiYjeGE7WFlxN0ZYWXE3RlhZcTdGWFlxN0ZYWXE3RlhZcTdGWFlxN0ZYWXE3RlVibzJrM1dyYXBiYWRhaXMxdzRVSHNvNnN4OWxHNXlyTmxHTyYjeGE7SmtlUWJjR0U1SmlJNWw5SWFUcGRycGVtMituMnE4WUxkQWkrSjhXUHV4M09jZGx5R2NqSTh5OXpoeERIQVJISUl2SzIxMkt1eFY0OSYjeGE7K2NIbW42MWZKb1ZzOVlMUWg3c2c3Tk1Sc3Y4QXNBZnZQdG5ROWs2YmhqNGg1bmw3bm1lMmRYeFM4TWNvOC9mK3hMUHl1OHEvcGpYQiYjeGE7ZVhDVnNOUElrZXZSNWVzYWZlT1IvdHkvdFBVK0hEaEgxU2Nmc3JTZUxrNGo5TWZ2ZTZaeTcxenNWZGlxbmNYRU50YnlYRTdpT0dGVyYjeGE7a2xjOUZWUlVrL0lZWXhKTkRteGxJUkJKNUI4NmViZk1VM21EWEo5UWVxeEU4TGFNL3NSTDlrZlB1ZmM1MkdsMDR4UUVmbjczaU5acSYjeGE7VG15R1h5OXlUWmt1SzdGWFlxN0ZYWXE3RlhZcTdGWFlxN0ZYWXE3RlhZcTdGWFlxN0ZYWXE3RlhZcTdGV1gvbC93Q2F0Qzh0eTNOMyYjeGE7ZVcwMXhleWdSeE5HRTRwSDFiN1REZGorck5mcjlMa3pBQ0pBaTdQczdWNDhCTXBBbVROZitWMmFCL3l3M2Y4QXlULzVyeldmeU5rNyYjeGE7eDlydGY1Y3gvd0EyWDJPLzVYWm9IL0xEZC84QUpQOEE1cngva2JKM2o3Vi9sekgvQURaZlk3L2xkbWdmOHNOMy93QWsvd0RtdkgrUiYjeGE7c25lUHRYK1hNZjhBTmw5aWplL25YcFp0SmhaMlZ3dDBVWVFOSjZmQU9SOEphakUwQnlVT3g1V09JaW1FKzNJY0o0WW0za2tzc2swciYjeGE7elNzWGxrWXU3bmNsbU5TVDh6blFBQUNnODJTU2JMMHJ5cCtaZmxuUU5FZzA2T3h1V2tVYzdpVUNQNDVXKzAzMnZvSHRtbDFYWjJYTCYjeGE7TXlKRHZ0SjJwaXc0eEVSbDU4dWFiLzhBSzdOQS93Q1dHNy81Si84QU5lWS84alpPOGZhNVA4dVkvd0NiTDdIZjhyczBEL2xodS84QSYjeGE7a24velhqL0kyVHZIMnIvTG1QOEFteSt4My9LN05BLzVZYnYvQUpKLzgxNC95Tms3eDlxL3k1ai9BSnN2c1k3NTQvTkNIWE5JL1J1biYjeGE7UVMyNlNzRGRQTHhCWkYzQ0RpVDFQWE16UmRtbkZQaWtRZTV3dGYycU1zT0NJSXZtODl6YnVrZGlyc1ZkaXJzVmRpcnNWZGlyc1ZkaSYjeGE7cnNWZGlyc1ZkaXJzVmRpcnNWZGlyc1ZkaXJzVmRpcnNWZGlyc1ZkaXJzVmRpcnNWZGlyc1ZkaXJzVmRpcnNWZGlyc1ZkaXJzVmRpciYjeGE7c1ZkaXJzVmRpcnNWZGlyc1ZkaXJzVmRpcnNWZGlyc1ZkaXJzVmRpcnNWZGlyc1ZkaXJzVmRpcnNWZGlyc1ZkaXJzVmRpcnNWZGlycyYjeGE7VmRpcnNWZGlyc1ZkaXJzVmRpcnNWZGlyc1ZkaXJzVmRpcnNWZGlyc1ZkaXJzVmRpcnNWZGlyc1ZkaXJzVmRpcnNWZGlyc1ZkaXJzViYjeGE7ZGlyc1ZkaXJzVmRpcnNWZGlyc1ZkaXJzVmRpcnNWZGlyc1ZkaXJzVmRpcnNWZGlyc1ZkaXJzVmRpcnNWZGlyc1ZkaXJzVmRpcnNWZCYjeGE7aXJzVmRpcnNWZGlyc1ZkaXJzVmRpcnNWZGlyc1ZkaXJzVmRpcnNWZGlyc1ZkaXJzVmRpcnNWZGlyc1ZkaXJzVmRpcnNWZGlyc1ZkaSYjeGE7cnNWZGlyc1ZkaXJzVmRpcnNWZGlyc1ZkaXJzVmRpcnNWZGlyc1ZkaXJzVmRpcnNWZGlyc1ZkaXJzVmRpcnNWZGlyc1ZkaXJzVmRpciYjeGE7c1ZkaXJzVmRpcnNWZGlyc1ZkaXJzVmRpcnNWZGlyc1ZkaXJzVmRpcnNWZGlyc1ZkaXJzVmRpcnNWZGlyc1ZkaXJzVmRpcnNWZGlycyYjeGE7VmRpcnNWZGlyc1ZkaXJzVmRpcnNWZGlyc1ZkaXJzVmRpcnNWZGlyc1ZkaXJzVmRpcnNWZGlyc1ZkaXJzVmRpcnNWZGlyc1ZkaXJzViYjeGE7ZGlyc1ZkaXJzVmRpcnNWZGlyc1ZkaXJzVmRpcnNWZGlyc1ZkaXJzVmRpcnNWZGlyc1ZkaXJzVmRpcnNWZGlyc1ZkaXJzVmRpcnNWZCYjeGE7aXJzVmRpcnNWZGlyc1ZkaXJzVmRpcnNWZGlyL0FQL1omI3hhOyAgICAgICAgICAgICAgICYjeGE7ICAgICAgICAgICAgJiN4YTsgICAgICAgICAmI3hhOyAgICAgICYjeGE7ICAgICAgJiN4YTsgICAgICAgICB4bXAuaWlkOkZBN0YxMTc0MDcyMDY4MTE4MDgzOUYxRDJCRTNBQUY4JiN4YTsgICAgICAgICB4bXAuZGlkOkZBN0YxMTc0MDcyMDY4MTE4MDgzOUYxRDJCRTNBQUY4JiN4YTsgICAgICAgICB1dWlkOjVEMjA4OTI0OTNCRkRCMTE5MTRBODU5MEQzMTUwOEM4JiN4YTsgICAgICAgICBwcm9vZjpwZGYmI3hhOyAgICAgICAgICYjeGE7ICAgICAgICAgICAgeG1wLmlpZDpGOTdGMTE3NDA3MjA2ODExODA4MzlGMUQyQkUzQUFGOCYjeGE7ICAgICAgICAgICAgeG1wLmRpZDpGOTdGMTE3NDA3MjA2ODExODA4MzlGMUQyQkUzQUFGOCYjeGE7ICAgICAgICAgICAgdXVpZDo1RDIwODkyNDkzQkZEQjExOTE0QTg1OTBEMzE1MDhDOCYjeGE7ICAgICAgICAgICAgcHJvb2Y6cGRmJiN4YTsgICAgICAgICAmI3hhOyAgICAgICAgICYjeGE7ICAgICAgICAgICAgJiN4YTsgICAgICAgICAgICAgICAmI3hhOyAgICAgICAgICAgICAgICAgIHNhdmVkJiN4YTsgICAgICAgICAgICAgICAgICB4bXAuaWlkOkY5N0YxMTc0MDcyMDY4MTE4MDgzOUYxRDJCRTNBQUY4JiN4YTsgICAgICAgICAgICAgICAgICAyMDEzLTA0LTI2VDE3OjE2OjEyKzAyOjAwJiN4YTsgICAgICAgICAgICAgICAgICBBZG9iZSBJbGx1c3RyYXRvciBDUzUmI3hhOyAgICAgICAgICAgICAgICAgIC8mI3hhOyAgICAgICAgICAgICAgICYjeGE7ICAgICAgICAgICAgICAgJiN4YTsgICAgICAgICAgICAgICAgICBzYXZlZCYjeGE7ICAgICAgICAgICAgICAgICAgeG1wLmlpZDpGQTdGMTE3NDA3MjA2ODExODA4MzlGMUQyQkUzQUFGOCYjeGE7ICAgICAgICAgICAgICAgICAgMjAxMy0wNC0yNlQxNzoyMjoyNiswMjowMCYjeGE7ICAgICAgICAgICAgICAgICAgQWRvYmUgSWxsdXN0cmF0b3IgQ1M1JiN4YTsgICAgICAgICAgICAgICAgICAvJiN4YTsgICAgICAgICAgICAgICAmI3hhOyAgICAgICAgICAgICYjeGE7ICAgICAgICAgJiN4YTsgICAgICAmI3hhOyAgICAgICYjeGE7ICAgICAgICAgUHJpbnQmI3hhOyAgICAgICYjeGE7ICAgICAgJiN4YTsgICAgICAgICBGYWxzZSYjeGE7ICAgICAgICAgRmFsc2UmI3hhOyAgICAgICAgIDEmI3hhOyAgICAgICAgICYjeGE7ICAgICAgICAgICAgMTAzLjAxMTExMSYjeGE7ICAgICAgICAgICAgMTAzLjAxMTExMSYjeGE7ICAgICAgICAgICAgTWlsbGltZXRlcnMmI3hhOyAgICAgICAgICYjeGE7ICAgICAgICAgJiN4YTsgICAgICAgICAgICAmI3hhOyAgICAgICAgICAgICAgIEN5YW4mI3hhOyAgICAgICAgICAgICAgIE1hZ2VudGEmI3hhOyAgICAgICAgICAgICAgIFllbGxvdyYjeGE7ICAgICAgICAgICAgICAgQmxhY2smI3hhOyAgICAgICAgICAgICYjeGE7ICAgICAgICAgJiN4YTsgICAgICAgICAmI3hhOyAgICAgICAgICAgICYjeGE7ICAgICAgICAgICAgICAgJiN4YTsgICAgICAgICAgICAgICAgICBTdGFuZGFyZC1GYXJiZmVsZGdydXBwZSYjeGE7ICAgICAgICAgICAgICAgICAgMCYjeGE7ICAgICAgICAgICAgICAgJiN4YTsgICAgICAgICAgICAmI3hhOyAgICAgICAgICYjeGE7ICAgICAgJiN4YTsgICAgICAmI3hhOyAgICAgICAgIEFkb2JlIFBERiBsaWJyYXJ5IDkuOTAmI3hhOyAgICAgICYjeGE7ICAgJiN4YTsmI3hhOyAgICAgICAgICAgICAgICAgICAgICAgICAgICAgICAgICAgICAgICAgICAgICAgICAgICAgICAgICAgICAgICAgICAgICAgICAgICAgICAgICAgICAgICAgICAgICAgICAgICAmI3hhOyAgICAgICAgICAgICAgICAgICAgICAgICAgICAgICAgICAgICAgICAgICAgICAgICAgICAgICAgICAgICAgICAgICAgICAgICAgICAgICAgICAgICAgICAgICAgICAgICAgICAmI3hhOyAgICAgICAgICAgICAgICAgICAgICAgICAgICAgICAgICAgICAgICAgICAgICAgICAgICAgICAgICAgICAgICAgICAgICAgICAgICAgICAgICAgICAgICAgICAgICAgICAgICAmI3hhOyAgICAgICAgICAgICAgICAgICAgICAgICAgICAgICAgICAgICAgICAgICAgICAgICAgICAgICAgICAgICAgICAgICAgICAgICAgICAgICAgICAgICAgICAgICAgICAgICAgICAmI3hhOyAgICAgICAgICAgICAgICAgICAgICAgICAgICAgICAgICAgICAgICAgICAgICAgICAgICAgICAgICAgICAgICAgICAgICAgICAgICAgICAgICAgICAgICAgICAgICAgICAgICAmI3hhOyAgICAgICAgICAgICAgICAgICAgICAgICAgICAgICAgICAgICAgICAgICAgICAgICAgICAgICAgICAgICAgICAgICAgICAgICAgICAgICAgICAgICAgICAgICAgICAgICAgICAmI3hhOyAgICAgICAgICAgICAgICAgICAgICAgICAgICAgICAgICAgICAgICAgICAgICAgICAgICAgICAgICAgICAgICAgICAgICAgICAgICAgICAgICAgICAgICAgICAgICAgICAgICAmI3hhOyAgICAgICAgICAgICAgICAgICAgICAgICAgICAgICAgICAgICAgICAgICAgICAgICAgICAgICAgICAgICAgICAgICAgICAgICAgICAgICAgICAgICAgICAgICAgICAgICAgICAmI3hhOyAgICAgICAgICAgICAgICAgICAgICAgICAgICAgICAgICAgICAgICAgICAgICAgICAgICAgICAgICAgICAgICAgICAgICAgICAgICAgICAgICAgICAgICAgICAgICAgICAgICAmI3hhOyAgICAgICAgICAgICAgICAgICAgICAgICAgICAgICAgICAgICAgICAgICAgICAgICAgICAgICAgICAgICAgICAgICAgICAgICAgICAgICAgICAgICAgICAgICAgICAgICAgICAmI3hhOyAgICAgICAgICAgICAgICAgICAgICAgICAgICAgICAgICAgICAgICAgICAgICAgICAgICAgICAgICAgICAgICAgICAgICAgICAgICAgICAgICAgICAgICAgICAgICAgICAgICAmI3hhOyAgICAgICAgICAgICAgICAgICAgICAgICAgICAgICAgICAgICAgICAgICAgICAgICAgICAgICAgICAgICAgICAgICAgICAgICAgICAgICAgICAgICAgICAgICAgICAgICAgICAmI3hhOyAgICAgICAgICAgICAgICAgICAgICAgICAgICAgICAgICAgICAgICAgICAgICAgICAgICAgICAgICAgICAgICAgICAgICAgICAgICAgICAgICAgICAgICAgICAgICAgICAgICAmI3hhOyAgICAgICAgICAgICAgICAgICAgICAgICAgICAgICAgICAgICAgICAgICAgICAgICAgICAgICAgICAgICAgICAgICAgICAgICAgICAgICAgICAgICAgICAgICAgICAgICAgICAmI3hhOyAgICAgICAgICAgICAgICAgICAgICAgICAgICAgICAgICAgICAgICAgICAgICAgICAgICAgICAgICAgICAgICAgICAgICAgICAgICAgICAgICAgICAgICAgICAgICAgICAgICAmI3hhOyAgICAgICAgICAgICAgICAgICAgICAgICAgICAgICAgICAgICAgICAgICAgICAgICAgICAgICAgICAgICAgICAgICAgICAgICAgICAgICAgICAgICAgICAgICAgICAgICAgICAmI3hhOyAgICAgICAgICAgICAgICAgICAgICAgICAgICAgICAgICAgICAgICAgICAgICAgICAgICAgICAgICAgICAgICAgICAgICAgICAgICAgICAgICAgICAgICAgICAgICAgICAgICAmI3hhOyAgICAgICAgICAgICAgICAgICAgICAgICAgICAgICAgICAgICAgICAgICAgICAgICAgICAgICAgICAgICAgICAgICAgICAgICAgICAgICAgICAgICAgICAgICAgICAgICAgICAmI3hhOyAgICAgICAgICAgICAgICAgICAgICAgICAgICAgICAgICAgICAgICAgICAgICAgICAgICAgICAgICAgICAgICAgICAgICAgICAgICAgICAgICAgICAgICAgICAgICAgICAgICAmI3hhOyAgICAgICAgICAgICAgICAgICAgICAgICAgICAgICAgICAgICAgICAgICAgICAgICAgICAgICAgICAgICAgICAgICAgICAgICAgICAgICAgICAgICAgICAgICAgICAgICAgICAmI3hhOyAgICAgICAgICAgICAgICAgICAgICAgICAgICYjeGE7JiN4YTsJPC9tZXRhZGF0YT4mI3hhOzxnPiYjeGE7CTxyZWN0IGhlaWdodD0iMjkyIiB3aWR0aD0iMjkyIiBmaWxsPSIjMkQ5OEUwIi8+JiN4YTsJPGc+JiN4YTsJCTxwb2x5Z29uIHBvaW50cz0iMTgwLjUsMTI2IDE0MC41LDEyNiAxNjMuNSwxNjYgMTQwLjUsMjA2IDE4MC41LDIwNiAyMDMuNSwxNjYiIGZpbGw9IiNGRkZGRkYiLz4mI3hhOwkJPHBvbHlnb24gcG9pbnRzPSIyMzIuNSwxMjYgMTkyLjUsMTI2IDIxNS41LDE2NiAxOTIuNSwyMDYgMjMyLjUsMjA2IDI1NS41LDE2NiIgZmlsbD0iI0ZGRkZGRiIvPiYjeGE7CQk8cG9seWdvbiBwb2ludHM9IjEyOC41LDEyNiAxNTEuNSw4NiAxMTEuNSw4NiA4OC41LDEyNiAxMTEuNSwxNjYgMTUxLjUsMTY2IiBmaWxsPSIjRkZGRkZGIi8+JiN4YTsJCTxwb2x5Z29uIHBvaW50cz0iOTkuNSw4NiA1OS41LDg2IDM2LjUsMTI2IDU5LjUsMTY2IDk5LjUsMTY2IDc2LjUsMTI2IiBmaWxsPSIjRkZGRkZGIi8+JiN4YTsJPC9nPiYjeGE7PC9nPiYjeGE7PC9zdmc+;" vertex="1" parent="75"><mxGeometry x="63" y="16.92999999999995" width="42" height="42" as="geometry"/></mxCell><mxCell id="82" style="edgeStyle=orthogonalEdgeStyle;curved=1;orthogonalLoop=1;jettySize=auto;html=1;entryX=0;entryY=0.5;entryDx=0;entryDy=0;" edge="1" parent="1" source="79" target="7"><mxGeometry relative="1" as="geometry"/></mxCell><mxCell id="79" value="Machine Learning" style="shape=process;whiteSpace=wrap;html=1;backgroundOutline=1;" vertex="1" parent="1"><mxGeometry x="30" y="480" width="120" height="60" as="geometry"/></mxCell><mxCell id="86" style="edgeStyle=orthogonalEdgeStyle;curved=1;orthogonalLoop=1;jettySize=auto;html=1;" edge="1" parent="1" source="85" target="79"><mxGeometry relative="1" as="geometry"/></mxCell><mxCell id="85" value="Training Data" style="strokeWidth=2;html=1;shape=mxgraph.flowchart.multi-document;whiteSpace=wrap;" vertex="1" parent="1"><mxGeometry x="35" y="380" width="110" height="60" as="geometry"/></mxCell></root></mxGraphModel></diagram></mxfile>